%TF.GenerationSoftware,KiCad,Pcbnew,8.0.5*%
%TF.CreationDate,2024-09-28T10:39:20+08:00*%
%TF.ProjectId,ColecoVisionController,436f6c65-636f-4566-9973-696f6e436f6e,rev?*%
%TF.SameCoordinates,Original*%
%TF.FileFunction,Profile,NP*%
%FSLAX46Y46*%
G04 Gerber Fmt 4.6, Leading zero omitted, Abs format (unit mm)*
G04 Created by KiCad (PCBNEW 8.0.5) date 2024-09-28 10:39:20*
%MOMM*%
%LPD*%
G01*
G04 APERTURE LIST*
%TA.AperFunction,Profile*%
%ADD10C,0.200000*%
%TD*%
%ADD11C,0.200000*%
G04 APERTURE END LIST*
D10*
X166986000Y-135352300D02*
X116986000Y-135352300D01*
D11*
X202699300Y-131734100D02*
X203681677Y-131240637D01*
X204660014Y-130718360D01*
X205632533Y-130167752D01*
X206597452Y-129589295D01*
X207552990Y-128983473D01*
X208497369Y-128350769D01*
X209428806Y-127691667D01*
X210345523Y-127006650D01*
X211245738Y-126296200D01*
X212127672Y-125560802D01*
X212989544Y-124800938D01*
X213829573Y-124017092D01*
X214645980Y-123209747D01*
X215436984Y-122379386D01*
X216200805Y-121526492D01*
X216935662Y-120651550D01*
X217639775Y-119755041D01*
X218311365Y-118837449D01*
X218948649Y-117899258D01*
X219549849Y-116940951D01*
X220113184Y-115963011D01*
X220636874Y-114965921D01*
X221119137Y-113950164D01*
X221558195Y-112916225D01*
X221952266Y-111864585D01*
X222299571Y-110795728D01*
X222598328Y-109710138D01*
X222846758Y-108608298D01*
X223043081Y-107490691D01*
X223185515Y-106357800D01*
X223272282Y-105210108D01*
X223301600Y-104048100D01*
D10*
X83248200Y-81470300D02*
X116986000Y-55358000D01*
X116986000Y-55358000D02*
X166986000Y-55358000D01*
X116986000Y-135352300D02*
X81272700Y-131734100D01*
X200723800Y-81470300D02*
X166986000Y-55358000D01*
D11*
X81272700Y-131734100D02*
X80290322Y-131240637D01*
X79311985Y-130718360D01*
X78339466Y-130167752D01*
X77374547Y-129589295D01*
X76419009Y-128983473D01*
X75474630Y-128350769D01*
X74543193Y-127691667D01*
X73626476Y-127006650D01*
X72726261Y-126296200D01*
X71844327Y-125560802D01*
X70982455Y-124800938D01*
X70142426Y-124017092D01*
X69326019Y-123209747D01*
X68535015Y-122379386D01*
X67771194Y-121526492D01*
X67036337Y-120651550D01*
X66332224Y-119755041D01*
X65660634Y-118837449D01*
X65023350Y-117899258D01*
X64422150Y-116940951D01*
X63858815Y-115963011D01*
X63335125Y-114965921D01*
X62852862Y-113950164D01*
X62413804Y-112916225D01*
X62019733Y-111864585D01*
X61672428Y-110795728D01*
X61373671Y-109710138D01*
X61125241Y-108608298D01*
X60928918Y-107490691D01*
X60786484Y-106357800D01*
X60699717Y-105210108D01*
X60670400Y-104048100D01*
X60670400Y-104048100D02*
X60699778Y-102886247D01*
X60786966Y-101739646D01*
X60930546Y-100609717D01*
X61129099Y-99497878D01*
X61381207Y-98405547D01*
X61685451Y-97334143D01*
X62040412Y-96285085D01*
X62444671Y-95259790D01*
X62896811Y-94259678D01*
X63395413Y-93286168D01*
X63939057Y-92340678D01*
X64526326Y-91424626D01*
X65155801Y-90539431D01*
X65826063Y-89686512D01*
X66535694Y-88867287D01*
X67283275Y-88083175D01*
X68067387Y-87335594D01*
X68886612Y-86625963D01*
X69739531Y-85955701D01*
X70624726Y-85326226D01*
X71540778Y-84738957D01*
X72486268Y-84195313D01*
X73459778Y-83696711D01*
X74459890Y-83244571D01*
X75485185Y-82840312D01*
X76534243Y-82485351D01*
X77605647Y-82181107D01*
X78697978Y-81928999D01*
X79809817Y-81730446D01*
X80939746Y-81586866D01*
X82086347Y-81499678D01*
X83248200Y-81470300D01*
D10*
X166986000Y-135352300D02*
X202699300Y-131734100D01*
D11*
X223301600Y-104048100D02*
X223272221Y-102886247D01*
X223185033Y-101739646D01*
X223041453Y-100609717D01*
X222842900Y-99497878D01*
X222590792Y-98405547D01*
X222286548Y-97334143D01*
X221931587Y-96285085D01*
X221527328Y-95259790D01*
X221075188Y-94259678D01*
X220576586Y-93286168D01*
X220032942Y-92340678D01*
X219445673Y-91424626D01*
X218816198Y-90539431D01*
X218145936Y-89686512D01*
X217436305Y-88867287D01*
X216688725Y-88083175D01*
X215904612Y-87335594D01*
X215085387Y-86625963D01*
X214232468Y-85955701D01*
X213347273Y-85326226D01*
X212431221Y-84738957D01*
X211485731Y-84195313D01*
X210512221Y-83696711D01*
X209512109Y-83244571D01*
X208486814Y-82840312D01*
X207437756Y-82485351D01*
X206366352Y-82181107D01*
X205274021Y-81928999D01*
X204162182Y-81730446D01*
X203032253Y-81586866D01*
X201885652Y-81499678D01*
X200723800Y-81470300D01*
M02*
