  0
SECTION
  2
HEADER
  9
$ANGBASE
  50
0.0
  9
$ANGDIR
  70
1
  9
$MEASUREMENT
  70
1
  0
ENDSEC
  0
SECTION
  2
TABLES
  0
TABLE
  2
LTYPE
  70
4
  0
LTYPE
  5
40F
  2
CONTINUOUS
  70
0
  3
Solid line
  72
65
  73
0
  40
0.0
  0
LTYPE
  5
410
  2
DASHDOT
 70
0
  3
Dash Dot ____ _ ____ _
 72
65
 73
4
 40
2.0
 49
1.25
 49
-0.25
 49
0.25
 49
-0.25
  0
LTYPE
  5
411
  2
DASHED
 70
0
  3
Dashed __ __ __ __ __
 72
65
 73
2
 40
0.75
 49
0.5
 49
-0.25
  0
LTYPE
  5
43B
  2
DOTTED
 70
0
  3
Dotted .  .  .  .
 72
65
 73
2
 40
0.2
 49
0.0
 49
-0.2
  0
ENDTAB
  0
TABLE
  2
STYLE
  70
4
  0
STYLE
  2
KICAD
  70
0
  40
0
  41
1
  42
1
  50
0
  71
0
  3
isocp.shx
  0
STYLE
  2
KICADB
  70
0
  40
0
  41
1
  42
1
  50
0
  71
0
  3
isocp.shx
  0
STYLE
  2
KICADI
  70
0
  40
0
  41
1
  42
1
  50
15
  71
0
  3
isocp.shx
  0
STYLE
  2
KICADBI
  70
0
  40
0
  41
1
  42
1
  50
15
  71
0
  3
isocp.shx
  0
ENDTAB
  0
TABLE
  2
LAYER
  70
1
  0
LAYER
  2
BLACK
  70
0
  62
7
  6
CONTINUOUS
  0
ENDTAB
  0
ENDSEC
  0
SECTION
  2
ENTITIES
0
LINE
8
BLACK
6
CONTINUOUS
10
166.98599999999999
20
-135.3522999999999854
11
116.98599999999999
21
-135.3522999999999854
0
LINE
8
BLACK
6
CONTINUOUS
10
202.6992999999999938
20
-131.7340999999999838
11
203.6816769999999792
21
-131.2406369999999924
0
LINE
8
BLACK
6
CONTINUOUS
10
203.6816769999999792
20
-131.2406369999999924
11
204.6600139999999897
21
-130.7183599999999899
0
LINE
8
BLACK
6
CONTINUOUS
10
204.6600139999999897
20
-130.7183599999999899
11
205.6325329999999951
21
-130.1677520000000072
0
LINE
8
BLACK
6
CONTINUOUS
10
205.6325329999999951
20
-130.1677520000000072
11
206.5974520000000041
21
-129.5892949999999928
0
LINE
8
BLACK
6
CONTINUOUS
10
206.5974520000000041
20
-129.5892949999999928
11
207.5529899999999941
21
-128.9834730000000036
0
LINE
8
BLACK
6
CONTINUOUS
10
207.5529899999999941
20
-128.9834730000000036
11
208.497368999999992
21
-128.3507689999999855
0
LINE
8
BLACK
6
CONTINUOUS
10
208.497368999999992
20
-128.3507689999999855
11
209.4288059999999803
21
-127.6916669999999954
0
LINE
8
BLACK
6
CONTINUOUS
10
209.4288059999999803
20
-127.6916669999999954
11
210.3455229999999858
21
-127.0066499999999934
0
LINE
8
BLACK
6
CONTINUOUS
10
210.3455229999999858
20
-127.0066499999999934
11
211.2457379999999887
21
-126.2961999999999989
0
LINE
8
BLACK
6
CONTINUOUS
10
211.2457379999999887
20
-126.2961999999999989
11
212.1276719999999898
21
-125.5608019999999954
0
LINE
8
BLACK
6
CONTINUOUS
10
212.1276719999999898
20
-125.5608019999999954
11
212.9895439999999951
21
-124.8009379999999879
0
LINE
8
BLACK
6
CONTINUOUS
10
212.9895439999999951
20
-124.8009379999999879
11
213.8295729999999821
21
-124.017091999999991
0
LINE
8
BLACK
6
CONTINUOUS
10
213.8295729999999821
20
-124.017091999999991
11
214.6459799999999802
21
-123.209746999999993
0
LINE
8
BLACK
6
CONTINUOUS
10
214.6459799999999802
20
-123.209746999999993
11
215.4369839999999954
21
-122.3793859999999967
0
LINE
8
BLACK
6
CONTINUOUS
10
215.4369839999999954
20
-122.3793859999999967
11
216.2008050000000026
21
-121.5264919999999904
0
LINE
8
BLACK
6
CONTINUOUS
10
216.2008050000000026
20
-121.5264919999999904
11
216.9356619999999793
21
-120.6515500000000003
0
LINE
8
BLACK
6
CONTINUOUS
10
216.9356619999999793
20
-120.6515500000000003
11
217.639774999999986
21
-119.7550409999999914
0
LINE
8
BLACK
6
CONTINUOUS
10
217.639774999999986
20
-119.7550409999999914
11
218.311364999999995
21
-118.8374489999999923
0
LINE
8
BLACK
6
CONTINUOUS
10
218.311364999999995
20
-118.8374489999999923
11
218.948648999999989
21
-117.899257999999989
0
LINE
8
BLACK
6
CONTINUOUS
10
218.948648999999989
20
-117.899257999999989
11
219.5498489999999947
21
-116.9409509999999983
0
LINE
8
BLACK
6
CONTINUOUS
10
219.5498489999999947
20
-116.9409509999999983
11
220.1131839999999897
21
-115.9630109999999945
0
LINE
8
BLACK
6
CONTINUOUS
10
220.1131839999999897
20
-115.9630109999999945
11
220.6368739999999775
21
-114.9659209999999945
0
LINE
8
BLACK
6
CONTINUOUS
10
220.6368739999999775
20
-114.9659209999999945
11
221.1191369999999949
21
-113.9501640000000009
0
LINE
8
BLACK
6
CONTINUOUS
10
221.1191369999999949
20
-113.9501640000000009
11
221.5581949999999836
21
-112.9162249999999972
0
LINE
8
BLACK
6
CONTINUOUS
10
221.5581949999999836
20
-112.9162249999999972
11
221.9522659999999803
21
-111.8645849999999911
0
LINE
8
BLACK
6
CONTINUOUS
10
221.9522659999999803
20
-111.8645849999999911
11
222.299570999999986
21
-110.7957279999999969
0
LINE
8
BLACK
6
CONTINUOUS
10
222.299570999999986
20
-110.7957279999999969
11
222.5983279999999809
21
-109.7101380000000006
0
LINE
8
BLACK
6
CONTINUOUS
10
222.5983279999999809
20
-109.7101380000000006
11
222.8467579999999941
21
-108.6082979999999907
0
LINE
8
BLACK
6
CONTINUOUS
10
222.8467579999999941
20
-108.6082979999999907
11
223.0430810000000008
21
-107.4906909999999982
0
LINE
8
BLACK
6
CONTINUOUS
10
223.0430810000000008
20
-107.4906909999999982
11
223.185514999999981
21
-106.3577999999999975
0
LINE
8
BLACK
6
CONTINUOUS
10
223.185514999999981
20
-106.3577999999999975
11
223.2722819999999899
21
-105.2101079999999911
0
LINE
8
BLACK
6
CONTINUOUS
10
223.2722819999999899
20
-105.2101079999999911
11
223.3015999999999792
21
-104.0480999999999909
0
LINE
8
BLACK
6
CONTINUOUS
10
83.2481999999999971
20
-81.4702999999999946
11
116.98599999999999
21
-55.357999999999997
0
LINE
8
BLACK
6
CONTINUOUS
10
116.98599999999999
20
-55.357999999999997
11
166.98599999999999
21
-55.357999999999997
0
LINE
8
BLACK
6
CONTINUOUS
10
116.98599999999999
20
-135.3522999999999854
11
81.2727000000000004
21
-131.7340999999999838
0
LINE
8
BLACK
6
CONTINUOUS
10
200.7237999999999829
20
-81.4702999999999946
11
166.98599999999999
21
-55.357999999999997
0
LINE
8
BLACK
6
CONTINUOUS
10
81.2727000000000004
20
-131.7340999999999838
11
80.2903220000000033
21
-131.2406369999999924
0
LINE
8
BLACK
6
CONTINUOUS
10
80.2903220000000033
20
-131.2406369999999924
11
79.3119849999999929
21
-130.7183599999999899
0
LINE
8
BLACK
6
CONTINUOUS
10
79.3119849999999929
20
-130.7183599999999899
11
78.3394660000000016
21
-130.1677520000000072
0
LINE
8
BLACK
6
CONTINUOUS
10
78.3394660000000016
20
-130.1677520000000072
11
77.3745469999999926
21
-129.5892949999999928
0
LINE
8
BLACK
6
CONTINUOUS
10
77.3745469999999926
20
-129.5892949999999928
11
76.4190090000000026
21
-128.9834730000000036
0
LINE
8
BLACK
6
CONTINUOUS
10
76.4190090000000026
20
-128.9834730000000036
11
75.4746299999999906
21
-128.3507689999999855
0
LINE
8
BLACK
6
CONTINUOUS
10
75.4746299999999906
20
-128.3507689999999855
11
74.5431930000000023
21
-127.6916669999999954
0
LINE
8
BLACK
6
CONTINUOUS
10
74.5431930000000023
20
-127.6916669999999954
11
73.6264759999999967
21
-127.0066499999999934
0
LINE
8
BLACK
6
CONTINUOUS
10
73.6264759999999967
20
-127.0066499999999934
11
72.7262609999999938
21
-126.2961999999999989
0
LINE
8
BLACK
6
CONTINUOUS
10
72.7262609999999938
20
-126.2961999999999989
11
71.8443269999999927
21
-125.5608019999999954
0
LINE
8
BLACK
6
CONTINUOUS
10
71.8443269999999927
20
-125.5608019999999954
11
70.9824550000000016
21
-124.8009379999999879
0
LINE
8
BLACK
6
CONTINUOUS
10
70.9824550000000016
20
-124.8009379999999879
11
70.1424260000000004
21
-124.017091999999991
0
LINE
8
BLACK
6
CONTINUOUS
10
70.1424260000000004
20
-124.017091999999991
11
69.3260190000000023
21
-123.209746999999993
0
LINE
8
BLACK
6
CONTINUOUS
10
69.3260190000000023
20
-123.209746999999993
11
68.5350150000000014
21
-122.3793859999999967
0
LINE
8
BLACK
6
CONTINUOUS
10
68.5350150000000014
20
-122.3793859999999967
11
67.7711939999999942
21
-121.5264919999999904
0
LINE
8
BLACK
6
CONTINUOUS
10
67.7711939999999942
20
-121.5264919999999904
11
67.0363370000000032
21
-120.6515500000000003
0
LINE
8
BLACK
6
CONTINUOUS
10
67.0363370000000032
20
-120.6515500000000003
11
66.3322239999999965
21
-119.7550409999999914
0
LINE
8
BLACK
6
CONTINUOUS
10
66.3322239999999965
20
-119.7550409999999914
11
65.6606340000000017
21
-118.8374489999999923
0
LINE
8
BLACK
6
CONTINUOUS
10
65.6606340000000017
20
-118.8374489999999923
11
65.0233499999999935
21
-117.899257999999989
0
LINE
8
BLACK
6
CONTINUOUS
10
65.0233499999999935
20
-117.899257999999989
11
64.422150000000002
21
-116.9409509999999983
0
LINE
8
BLACK
6
CONTINUOUS
10
64.422150000000002
20
-116.9409509999999983
11
63.8588149999999999
21
-115.9630109999999945
0
LINE
8
BLACK
6
CONTINUOUS
10
63.8588149999999999
20
-115.9630109999999945
11
63.3351249999999979
21
-114.9659209999999945
0
LINE
8
BLACK
6
CONTINUOUS
10
63.3351249999999979
20
-114.9659209999999945
11
62.8528619999999947
21
-113.9501640000000009
0
LINE
8
BLACK
6
CONTINUOUS
10
62.8528619999999947
20
-113.9501640000000009
11
62.413803999999999
21
-112.9162249999999972
0
LINE
8
BLACK
6
CONTINUOUS
10
62.413803999999999
20
-112.9162249999999972
11
62.0197329999999951
21
-111.8645849999999911
0
LINE
8
BLACK
6
CONTINUOUS
10
62.0197329999999951
20
-111.8645849999999911
11
61.6724279999999965
21
-110.7957279999999969
0
LINE
8
BLACK
6
CONTINUOUS
10
61.6724279999999965
20
-110.7957279999999969
11
61.3736709999999945
21
-109.7101380000000006
0
LINE
8
BLACK
6
CONTINUOUS
10
61.3736709999999945
20
-109.7101380000000006
11
61.1252409999999955
21
-108.6082979999999907
0
LINE
8
BLACK
6
CONTINUOUS
10
61.1252409999999955
20
-108.6082979999999907
11
60.9289179999999959
21
-107.4906909999999982
0
LINE
8
BLACK
6
CONTINUOUS
10
60.9289179999999959
20
-107.4906909999999982
11
60.7864839999999944
21
-106.3577999999999975
0
LINE
8
BLACK
6
CONTINUOUS
10
60.7864839999999944
20
-106.3577999999999975
11
60.6997169999999997
21
-105.2101079999999911
0
LINE
8
BLACK
6
CONTINUOUS
10
60.6997169999999997
20
-105.2101079999999911
11
60.6704000000000008
21
-104.0480999999999909
0
LINE
8
BLACK
6
CONTINUOUS
10
60.6704000000000008
20
-104.0480999999999909
11
60.6997779999999949
21
-102.8862469999999973
0
LINE
8
BLACK
6
CONTINUOUS
10
60.6997779999999949
20
-102.8862469999999973
11
60.7869659999999996
21
-101.7396459999999934
0
LINE
8
BLACK
6
CONTINUOUS
10
60.7869659999999996
20
-101.7396459999999934
11
60.9305459999999997
21
-100.6097169999999892
0
LINE
8
BLACK
6
CONTINUOUS
10
60.9305459999999997
20
-100.6097169999999892
11
61.1290989999999965
21
-99.497878
0
LINE
8
BLACK
6
CONTINUOUS
10
61.1290989999999965
20
-99.497878
11
61.3812069999999963
21
-98.4055469999999985
0
LINE
8
BLACK
6
CONTINUOUS
10
61.3812069999999963
20
-98.4055469999999985
11
61.6854510000000005
21
-97.3341429999999974
0
LINE
8
BLACK
6
CONTINUOUS
10
61.6854510000000005
20
-97.3341429999999974
11
62.0404119999999963
21
-96.2850849999999951
0
LINE
8
BLACK
6
CONTINUOUS
10
62.0404119999999963
20
-96.2850849999999951
11
62.4446709999999996
21
-95.2597899999999953
0
LINE
8
BLACK
6
CONTINUOUS
10
62.4446709999999996
20
-95.2597899999999953
11
62.8968109999999996
21
-94.2596779999999939
0
LINE
8
BLACK
6
CONTINUOUS
10
62.8968109999999996
20
-94.2596779999999939
11
63.3954129999999978
21
-93.2861679999999893
0
LINE
8
BLACK
6
CONTINUOUS
10
63.3954129999999978
20
-93.2861679999999893
11
63.9390569999999983
21
-92.3406779999999969
0
LINE
8
BLACK
6
CONTINUOUS
10
63.9390569999999983
20
-92.3406779999999969
11
64.5263259999999974
21
-91.4246259999999893
0
LINE
8
BLACK
6
CONTINUOUS
10
64.5263259999999974
20
-91.4246259999999893
11
65.1558009999999967
21
-90.5394309999999933
0
LINE
8
BLACK
6
CONTINUOUS
10
65.1558009999999967
20
-90.5394309999999933
11
65.8260629999999907
21
-89.6865119999999933
0
LINE
8
BLACK
6
CONTINUOUS
10
65.8260629999999907
20
-89.6865119999999933
11
66.5356939999999923
21
-88.8672869999999904
0
LINE
8
BLACK
6
CONTINUOUS
10
66.5356939999999923
20
-88.8672869999999904
11
67.2832750000000033
21
-88.0831749999999971
0
LINE
8
BLACK
6
CONTINUOUS
10
67.2832750000000033
20
-88.0831749999999971
11
68.0673869999999965
21
-87.3355940000000004
0
LINE
8
BLACK
6
CONTINUOUS
10
68.0673869999999965
20
-87.3355940000000004
11
68.8866119999999995
21
-86.6259629999999987
0
LINE
8
BLACK
6
CONTINUOUS
10
68.8866119999999995
20
-86.6259629999999987
11
69.7395309999999995
21
-85.9557009999999906
0
LINE
8
BLACK
6
CONTINUOUS
10
69.7395309999999995
20
-85.9557009999999906
11
70.6247259999999955
21
-85.3262259999999912
0
LINE
8
BLACK
6
CONTINUOUS
10
70.6247259999999955
20
-85.3262259999999912
11
71.5407780000000031
21
-84.7389569999999992
0
LINE
8
BLACK
6
CONTINUOUS
10
71.5407780000000031
20
-84.7389569999999992
11
72.4862679999999955
21
-84.1953129999999987
0
LINE
8
BLACK
6
CONTINUOUS
10
72.4862679999999955
20
-84.1953129999999987
11
73.459778
21
-83.6967109999999934
0
LINE
8
BLACK
6
CONTINUOUS
10
73.459778
20
-83.6967109999999934
11
74.4598900000000015
21
-83.2445709999999934
0
LINE
8
BLACK
6
CONTINUOUS
10
74.4598900000000015
20
-83.2445709999999934
11
75.4851850000000013
21
-82.8403119999999973
0
LINE
8
BLACK
6
CONTINUOUS
10
75.4851850000000013
20
-82.8403119999999973
11
76.5342430000000036
21
-82.4853509999999943
0
LINE
8
BLACK
6
CONTINUOUS
10
76.5342430000000036
20
-82.4853509999999943
11
77.6056469999999905
21
-82.1811069999999972
0
LINE
8
BLACK
6
CONTINUOUS
10
77.6056469999999905
20
-82.1811069999999972
11
78.697977999999992
21
-81.9289989999999904
0
LINE
8
BLACK
6
CONTINUOUS
10
78.697977999999992
20
-81.9289989999999904
11
79.8098169999999953
21
-81.7304460000000006
0
LINE
8
BLACK
6
CONTINUOUS
10
79.8098169999999953
20
-81.7304460000000006
11
80.9397459999999995
21
-81.5868660000000006
0
LINE
8
BLACK
6
CONTINUOUS
10
80.9397459999999995
20
-81.5868660000000006
11
82.0863469999999893
21
-81.499678000000003
0
LINE
8
BLACK
6
CONTINUOUS
10
82.0863469999999893
20
-81.499678000000003
11
83.2481999999999971
21
-81.4702999999999946
0
LINE
8
BLACK
6
CONTINUOUS
10
166.98599999999999
20
-135.3522999999999854
11
202.6992999999999938
21
-131.7340999999999838
0
LINE
8
BLACK
6
CONTINUOUS
10
223.3015999999999792
20
-104.0480999999999909
11
223.2722210000000018
21
-102.8862469999999973
0
LINE
8
BLACK
6
CONTINUOUS
10
223.2722210000000018
20
-102.8862469999999973
11
223.1850329999999758
21
-101.7396459999999934
0
LINE
8
BLACK
6
CONTINUOUS
10
223.1850329999999758
20
-101.7396459999999934
11
223.04145299999999
21
-100.6097169999999892
0
LINE
8
BLACK
6
CONTINUOUS
10
223.04145299999999
20
-100.6097169999999892
11
222.842899999999986
21
-99.497878
0
LINE
8
BLACK
6
CONTINUOUS
10
222.842899999999986
20
-99.497878
11
222.5907919999999933
21
-98.4055469999999985
0
LINE
8
BLACK
6
CONTINUOUS
10
222.5907919999999933
20
-98.4055469999999985
11
222.286547999999982
21
-97.3341429999999974
0
LINE
8
BLACK
6
CONTINUOUS
10
222.286547999999982
20
-97.3341429999999974
11
221.9315869999999791
21
-96.2850849999999951
0
LINE
8
BLACK
6
CONTINUOUS
10
221.9315869999999791
20
-96.2850849999999951
11
221.5273279999999829
21
-95.2597899999999953
0
LINE
8
BLACK
6
CONTINUOUS
10
221.5273279999999829
20
-95.2597899999999953
11
221.0751879999999971
21
-94.2596779999999939
0
LINE
8
BLACK
6
CONTINUOUS
10
221.0751879999999971
20
-94.2596779999999939
11
220.5765859999999918
21
-93.2861679999999893
0
LINE
8
BLACK
6
CONTINUOUS
10
220.5765859999999918
20
-93.2861679999999893
11
220.0329419999999914
21
-92.3406779999999969
0
LINE
8
BLACK
6
CONTINUOUS
10
220.0329419999999914
20
-92.3406779999999969
11
219.4456729999999993
21
-91.4246259999999893
0
LINE
8
BLACK
6
CONTINUOUS
10
219.4456729999999993
20
-91.4246259999999893
11
218.8161979999999858
21
-90.5394309999999933
0
LINE
8
BLACK
6
CONTINUOUS
10
218.8161979999999858
20
-90.5394309999999933
11
218.1459359999999776
21
-89.6865119999999933
0
LINE
8
BLACK
6
CONTINUOUS
10
218.1459359999999776
20
-89.6865119999999933
11
217.436304999999976
21
-88.8672869999999904
0
LINE
8
BLACK
6
CONTINUOUS
10
217.436304999999976
20
-88.8672869999999904
11
216.6887249999999767
21
-88.0831749999999971
0
LINE
8
BLACK
6
CONTINUOUS
10
216.6887249999999767
20
-88.0831749999999971
11
215.904611999999986
21
-87.3355940000000004
0
LINE
8
BLACK
6
CONTINUOUS
10
215.904611999999986
20
-87.3355940000000004
11
215.0853869999999972
21
-86.6259629999999987
0
LINE
8
BLACK
6
CONTINUOUS
10
215.0853869999999972
20
-86.6259629999999987
11
214.232467999999983
21
-85.9557009999999906
0
LINE
8
BLACK
6
CONTINUOUS
10
214.232467999999983
20
-85.9557009999999906
11
213.3472730000000013
21
-85.3262259999999912
0
LINE
8
BLACK
6
CONTINUOUS
10
213.3472730000000013
20
-85.3262259999999912
11
212.4312209999999936
21
-84.7389569999999992
0
LINE
8
BLACK
6
CONTINUOUS
10
212.4312209999999936
20
-84.7389569999999992
11
211.485730999999987
21
-84.1953129999999987
0
LINE
8
BLACK
6
CONTINUOUS
10
211.485730999999987
20
-84.1953129999999987
11
210.5122209999999825
21
-83.6967109999999934
0
LINE
8
BLACK
6
CONTINUOUS
10
210.5122209999999825
20
-83.6967109999999934
11
209.5121089999999811
21
-83.2445709999999934
0
LINE
8
BLACK
6
CONTINUOUS
10
209.5121089999999811
20
-83.2445709999999934
11
208.4868139999999812
21
-82.8403119999999973
0
LINE
8
BLACK
6
CONTINUOUS
10
208.4868139999999812
20
-82.8403119999999973
11
207.4377559999999789
21
-82.4853509999999943
0
LINE
8
BLACK
6
CONTINUOUS
10
207.4377559999999789
20
-82.4853509999999943
11
206.3663519999999778
21
-82.1811069999999972
0
LINE
8
BLACK
6
CONTINUOUS
10
206.3663519999999778
20
-82.1811069999999972
11
205.2740210000000047
21
-81.9289989999999904
0
LINE
8
BLACK
6
CONTINUOUS
10
205.2740210000000047
20
-81.9289989999999904
11
204.1621820000000014
21
-81.7304460000000006
0
LINE
8
BLACK
6
CONTINUOUS
10
204.1621820000000014
20
-81.7304460000000006
11
203.0322529999999972
21
-81.5868660000000006
0
LINE
8
BLACK
6
CONTINUOUS
10
203.0322529999999972
20
-81.5868660000000006
11
201.8856519999999932
21
-81.499678000000003
0
LINE
8
BLACK
6
CONTINUOUS
10
201.8856519999999932
20
-81.499678000000003
11
200.7237999999999829
21
-81.4702999999999946
0
LINE
8
BLACK
6
CONTINUOUS
10
70.3859999999999957
20
-102.6859999999999928
11
73.5859999999999985
21
-105.8859999999999957
0
LINE
8
BLACK
6
CONTINUOUS
10
73.5859999999999985
20
-102.6859999999999928
11
70.3859999999999957
21
-105.8859999999999957
0
LINE
8
BLACK
6
CONTINUOUS
10
120.3859999999999957
20
-77.6859999999999928
11
123.5859999999999985
21
-80.8859999999999957
0
LINE
8
BLACK
6
CONTINUOUS
10
123.5859999999999985
20
-77.6859999999999928
11
120.3859999999999957
21
-80.8859999999999957
0
LINE
8
BLACK
6
CONTINUOUS
10
120.3859999999999957
20
-127.6859999999999928
11
123.5859999999999985
21
-130.8859999999999957
0
LINE
8
BLACK
6
CONTINUOUS
10
123.5859999999999985
20
-127.6859999999999928
11
120.3859999999999957
21
-130.8859999999999957
0
LINE
8
BLACK
6
CONTINUOUS
10
136.3859999999999957
20
-59.3599999999999994
11
139.5859999999999843
21
-62.5599999999999952
0
LINE
8
BLACK
6
CONTINUOUS
10
139.5859999999999843
20
-59.3599999999999994
11
136.3859999999999957
21
-62.5599999999999952
0
LINE
8
BLACK
6
CONTINUOUS
10
144.3859999999999957
20
-59.3599999999999994
11
147.5859999999999843
21
-62.5599999999999952
0
LINE
8
BLACK
6
CONTINUOUS
10
147.5859999999999843
20
-59.3599999999999994
11
144.3859999999999957
21
-62.5599999999999952
0
LINE
8
BLACK
6
CONTINUOUS
10
160.3859999999999957
20
-77.6859999999999928
11
163.5859999999999843
21
-80.8859999999999957
0
LINE
8
BLACK
6
CONTINUOUS
10
163.5859999999999843
20
-77.6859999999999928
11
160.3859999999999957
21
-80.8859999999999957
0
LINE
8
BLACK
6
CONTINUOUS
10
160.6399999999999864
20
-127.6859999999999928
11
163.8400000000000034
21
-130.8859999999999957
0
LINE
8
BLACK
6
CONTINUOUS
10
163.8400000000000034
20
-127.6859999999999928
11
160.6399999999999864
21
-130.8859999999999957
0
LINE
8
BLACK
6
CONTINUOUS
10
210.3859999999999957
20
-102.6859999999999928
11
213.5859999999999843
21
-105.8859999999999957
0
LINE
8
BLACK
6
CONTINUOUS
10
213.5859999999999843
20
-102.6859999999999928
11
210.3859999999999957
21
-105.8859999999999957
0
LINE
8
BLACK
6
CONTINUOUS
10
63.1781679999999994
20
-138.5671379999999999
11
63.1781679999999994
21
-136.5671379999999999
0
LINE
8
BLACK
6
CONTINUOUS
10
63.1781679999999994
20
-136.5671379999999999
11
63.6543579999999949
21
-136.5671379999999999
0
LINE
8
BLACK
6
CONTINUOUS
10
63.6543579999999949
20
-136.5671379999999999
11
63.9400729999999982
21
-136.6623759999999947
0
LINE
8
BLACK
6
CONTINUOUS
10
63.9400729999999982
20
-136.6623759999999947
11
64.130549000000002
21
-136.8528519999999844
0
LINE
8
BLACK
6
CONTINUOUS
10
64.130549000000002
20
-136.8528519999999844
11
64.2257869999999969
21
-137.0433280000000025
0
LINE
8
BLACK
6
CONTINUOUS
10
64.2257869999999969
20
-137.0433280000000025
11
64.3210249999999917
21
-137.4242799999999818
0
LINE
8
BLACK
6
CONTINUOUS
10
64.3210249999999917
20
-137.4242799999999818
11
64.3210249999999917
21
-137.7099949999999922
0
LINE
8
BLACK
6
CONTINUOUS
10
64.3210249999999917
20
-137.7099949999999922
11
64.2257869999999969
21
-138.0909469999999999
0
LINE
8
BLACK
6
CONTINUOUS
10
64.2257869999999969
20
-138.0909469999999999
11
64.130549000000002
21
-138.2814229999999895
0
LINE
8
BLACK
6
CONTINUOUS
10
64.130549000000002
20
-138.2814229999999895
11
63.9400729999999982
21
-138.4719000000000051
0
LINE
8
BLACK
6
CONTINUOUS
10
63.9400729999999982
20
-138.4719000000000051
11
63.6543579999999949
21
-138.5671379999999999
0
LINE
8
BLACK
6
CONTINUOUS
10
63.6543579999999949
20
-138.5671379999999999
11
63.1781679999999994
21
-138.5671379999999999
0
LINE
8
BLACK
6
CONTINUOUS
10
65.1781679999999994
20
-138.5671379999999999
11
65.1781679999999994
21
-137.2338039999999921
0
LINE
8
BLACK
6
CONTINUOUS
10
65.1781679999999994
20
-137.6147569999999973
11
65.2734059999999943
21
-137.4242799999999818
0
LINE
8
BLACK
6
CONTINUOUS
10
65.2734059999999943
20
-137.4242799999999818
11
65.3686440000000033
21
-137.329041999999987
0
LINE
8
BLACK
6
CONTINUOUS
10
65.3686440000000033
20
-137.329041999999987
11
65.559119999999993
21
-137.2338039999999921
0
LINE
8
BLACK
6
CONTINUOUS
10
65.559119999999993
20
-137.2338039999999921
11
65.7495969999999943
21
-137.2338039999999921
0
LINE
8
BLACK
6
CONTINUOUS
10
66.4162630000000007
20
-138.5671379999999999
11
66.4162630000000007
21
-137.2338039999999921
0
LINE
8
BLACK
6
CONTINUOUS
10
66.4162630000000007
20
-136.5671379999999999
11
66.3210249999999917
21
-136.6623759999999947
0
LINE
8
BLACK
6
CONTINUOUS
10
66.3210249999999917
20
-136.6623759999999947
11
66.4162630000000007
21
-136.7576139999999896
0
LINE
8
BLACK
6
CONTINUOUS
10
66.4162630000000007
20
-136.7576139999999896
11
66.5115009999999955
21
-136.6623759999999947
0
LINE
8
BLACK
6
CONTINUOUS
10
66.5115009999999955
20
-136.6623759999999947
11
66.4162630000000007
21
-136.5671379999999999
0
LINE
8
BLACK
6
CONTINUOUS
10
66.4162630000000007
20
-136.5671379999999999
11
66.4162630000000007
21
-136.7576139999999896
0
LINE
8
BLACK
6
CONTINUOUS
10
67.654358000000002
20
-138.5671379999999999
11
67.4638819999999981
21
-138.4719000000000051
0
LINE
8
BLACK
6
CONTINUOUS
10
67.4638819999999981
20
-138.4719000000000051
11
67.3686440000000033
21
-138.2814229999999895
0
LINE
8
BLACK
6
CONTINUOUS
10
67.3686440000000033
20
-138.2814229999999895
11
67.3686440000000033
21
-136.5671379999999999
0
LINE
8
BLACK
6
CONTINUOUS
10
68.7019769999999994
20
-138.5671379999999999
11
68.5115009999999955
21
-138.4719000000000051
0
LINE
8
BLACK
6
CONTINUOUS
10
68.5115009999999955
20
-138.4719000000000051
11
68.4162630000000007
21
-138.2814229999999895
0
LINE
8
BLACK
6
CONTINUOUS
10
68.4162630000000007
20
-138.2814229999999895
11
68.4162630000000007
21
-136.5671379999999999
0
LINE
8
BLACK
6
CONTINUOUS
10
70.9876919999999956
20
-138.5671379999999999
11
70.9876919999999956
21
-136.5671379999999999
0
LINE
8
BLACK
6
CONTINUOUS
10
70.9876919999999956
20
-136.5671379999999999
11
71.6543589999999995
21
-137.9957090000000051
0
LINE
8
BLACK
6
CONTINUOUS
10
71.6543589999999995
20
-137.9957090000000051
11
72.3210249999999917
21
-136.5671379999999999
0
LINE
8
BLACK
6
CONTINUOUS
10
72.3210249999999917
20
-136.5671379999999999
11
72.3210249999999917
21
-138.5671379999999999
0
LINE
8
BLACK
6
CONTINUOUS
10
74.130549000000002
20
-138.5671379999999999
11
74.130549000000002
21
-137.5195190000000025
0
LINE
8
BLACK
6
CONTINUOUS
10
74.130549000000002
20
-137.5195190000000025
11
74.035310999999993
21
-137.329041999999987
0
LINE
8
BLACK
6
CONTINUOUS
10
74.035310999999993
20
-137.329041999999987
11
73.8448350000000033
21
-137.2338039999999921
0
LINE
8
BLACK
6
CONTINUOUS
10
73.8448350000000033
20
-137.2338039999999921
11
73.4638819999999981
21
-137.2338039999999921
0
LINE
8
BLACK
6
CONTINUOUS
10
73.4638819999999981
20
-137.2338039999999921
11
73.2734059999999943
21
-137.329041999999987
0
LINE
8
BLACK
6
CONTINUOUS
10
74.130549000000002
20
-138.4719000000000051
11
73.9400729999999982
21
-138.5671379999999999
0
LINE
8
BLACK
6
CONTINUOUS
10
73.9400729999999982
20
-138.5671379999999999
11
73.4638819999999981
21
-138.5671379999999999
0
LINE
8
BLACK
6
CONTINUOUS
10
73.4638819999999981
20
-138.5671379999999999
11
73.2734059999999943
21
-138.4719000000000051
0
LINE
8
BLACK
6
CONTINUOUS
10
73.2734059999999943
20
-138.4719000000000051
11
73.1781679999999994
21
-138.2814229999999895
0
LINE
8
BLACK
6
CONTINUOUS
10
73.1781679999999994
20
-138.2814229999999895
11
73.1781679999999994
21
-138.0909469999999999
0
LINE
8
BLACK
6
CONTINUOUS
10
73.1781679999999994
20
-138.0909469999999999
11
73.2734059999999943
21
-137.9004709999999818
0
LINE
8
BLACK
6
CONTINUOUS
10
73.2734059999999943
20
-137.9004709999999818
11
73.4638819999999981
21
-137.805232999999987
0
LINE
8
BLACK
6
CONTINUOUS
10
73.4638819999999981
20
-137.805232999999987
11
73.9400729999999982
21
-137.805232999999987
0
LINE
8
BLACK
6
CONTINUOUS
10
73.9400729999999982
20
-137.805232999999987
11
74.130549000000002
21
-137.7099949999999922
0
LINE
8
BLACK
6
CONTINUOUS
10
75.0829299999999904
20
-137.2338039999999921
11
75.0829299999999904
21
-139.2338039999999921
0
LINE
8
BLACK
6
CONTINUOUS
10
75.0829299999999904
20
-137.329041999999987
11
75.2734059999999943
21
-137.2338039999999921
0
LINE
8
BLACK
6
CONTINUOUS
10
75.2734059999999943
20
-137.2338039999999921
11
75.6543589999999995
21
-137.2338039999999921
0
LINE
8
BLACK
6
CONTINUOUS
10
75.6543589999999995
20
-137.2338039999999921
11
75.8448350000000033
21
-137.329041999999987
0
LINE
8
BLACK
6
CONTINUOUS
10
75.8448350000000033
20
-137.329041999999987
11
75.9400729999999982
21
-137.4242799999999818
0
LINE
8
BLACK
6
CONTINUOUS
10
75.9400729999999982
20
-137.4242799999999818
11
76.035310999999993
21
-137.6147569999999973
0
LINE
8
BLACK
6
CONTINUOUS
10
76.035310999999993
20
-137.6147569999999973
11
76.035310999999993
21
-138.1861849999999947
0
LINE
8
BLACK
6
CONTINUOUS
10
76.035310999999993
20
-138.1861849999999947
11
75.9400729999999982
21
-138.3766609999999844
0
LINE
8
BLACK
6
CONTINUOUS
10
75.9400729999999982
20
-138.3766609999999844
11
75.8448350000000033
21
-138.4719000000000051
0
LINE
8
BLACK
6
CONTINUOUS
10
75.8448350000000033
20
-138.4719000000000051
11
75.6543589999999995
21
-138.5671379999999999
0
LINE
8
BLACK
6
CONTINUOUS
10
75.6543589999999995
20
-138.5671379999999999
11
75.2734059999999943
21
-138.5671379999999999
0
LINE
8
BLACK
6
CONTINUOUS
10
75.2734059999999943
20
-138.5671379999999999
11
75.0829299999999904
21
-138.4719000000000051
0
LINE
8
BLACK
6
CONTINUOUS
10
76.8924540000000007
20
-138.3766609999999844
11
76.9876919999999956
21
-138.4719000000000051
0
LINE
8
BLACK
6
CONTINUOUS
10
76.9876919999999956
20
-138.4719000000000051
11
76.8924540000000007
21
-138.5671379999999999
0
LINE
8
BLACK
6
CONTINUOUS
10
76.8924540000000007
20
-138.5671379999999999
11
76.7972159999999917
21
-138.4719000000000051
0
LINE
8
BLACK
6
CONTINUOUS
10
76.7972159999999917
20
-138.4719000000000051
11
76.8924540000000007
21
-138.3766609999999844
0
LINE
8
BLACK
6
CONTINUOUS
10
76.8924540000000007
20
-138.3766609999999844
11
76.8924540000000007
21
-138.5671379999999999
0
LINE
8
BLACK
6
CONTINUOUS
10
76.8924540000000007
20
-137.329041999999987
11
76.9876919999999956
21
-137.4242799999999818
0
LINE
8
BLACK
6
CONTINUOUS
10
76.9876919999999956
20
-137.4242799999999818
11
76.8924540000000007
21
-137.5195190000000025
0
LINE
8
BLACK
6
CONTINUOUS
10
76.8924540000000007
20
-137.5195190000000025
11
76.7972159999999917
21
-137.4242799999999818
0
LINE
8
BLACK
6
CONTINUOUS
10
76.7972159999999917
20
-137.4242799999999818
11
76.8924540000000007
21
-137.329041999999987
0
LINE
8
BLACK
6
CONTINUOUS
10
76.8924540000000007
20
-137.329041999999987
11
76.8924540000000007
21
-137.5195190000000025
0
LINE
8
BLACK
6
CONTINUOUS
10
58.5703999999999994
20
-140.8522999999999854
11
60.5703999999999994
21
-142.8522999999999854
0
LINE
8
BLACK
6
CONTINUOUS
10
60.5703999999999994
20
-140.8522999999999854
11
58.5703999999999994
21
-142.8522999999999854
0
LINE
8
BLACK
6
CONTINUOUS
10
62.9876919999999956
20
-140.7671379999999886
11
64.2257869999999969
21
-140.7671379999999886
0
LINE
8
BLACK
6
CONTINUOUS
10
64.2257869999999969
20
-140.7671379999999886
11
63.5591200000000001
21
-141.529042000000004
0
LINE
8
BLACK
6
CONTINUOUS
10
63.5591200000000001
20
-141.529042000000004
11
63.8448349999999962
21
-141.529042000000004
0
LINE
8
BLACK
6
CONTINUOUS
10
63.8448349999999962
20
-141.529042000000004
11
64.035310999999993
21
-141.6242799999999988
0
LINE
8
BLACK
6
CONTINUOUS
10
64.035310999999993
20
-141.6242799999999988
11
64.130549000000002
21
-141.7195189999999911
0
LINE
8
BLACK
6
CONTINUOUS
10
64.130549000000002
20
-141.7195189999999911
11
64.2257869999999969
21
-141.9099949999999808
0
LINE
8
BLACK
6
CONTINUOUS
10
64.2257869999999969
20
-141.9099949999999808
11
64.2257869999999969
21
-142.3861849999999833
0
LINE
8
BLACK
6
CONTINUOUS
10
64.2257869999999969
20
-142.3861849999999833
11
64.130549000000002
21
-142.5766610000000014
0
LINE
8
BLACK
6
CONTINUOUS
10
64.130549000000002
20
-142.5766610000000014
11
64.035310999999993
21
-142.6718999999999937
0
LINE
8
BLACK
6
CONTINUOUS
10
64.035310999999993
20
-142.6718999999999937
11
63.8448349999999962
21
-142.7671379999999886
0
LINE
8
BLACK
6
CONTINUOUS
10
63.8448349999999962
20
-142.7671379999999886
11
63.2734059999999943
21
-142.7671379999999886
0
LINE
8
BLACK
6
CONTINUOUS
10
63.2734059999999943
20
-142.7671379999999886
11
63.0829299999999975
21
-142.6718999999999937
0
LINE
8
BLACK
6
CONTINUOUS
10
63.0829299999999975
20
-142.6718999999999937
11
62.9876919999999956
21
-142.5766610000000014
0
LINE
8
BLACK
6
CONTINUOUS
10
65.0829299999999904
20
-142.5766610000000014
11
65.1781679999999994
21
-142.6718999999999937
0
LINE
8
BLACK
6
CONTINUOUS
10
65.1781679999999994
20
-142.6718999999999937
11
65.0829299999999904
21
-142.7671379999999886
0
LINE
8
BLACK
6
CONTINUOUS
10
65.0829299999999904
20
-142.7671379999999886
11
64.9876919999999956
21
-142.6718999999999937
0
LINE
8
BLACK
6
CONTINUOUS
10
64.9876919999999956
20
-142.6718999999999937
11
65.0829299999999904
21
-142.5766610000000014
0
LINE
8
BLACK
6
CONTINUOUS
10
65.0829299999999904
20
-142.5766610000000014
11
65.0829299999999904
21
-142.7671379999999886
0
LINE
8
BLACK
6
CONTINUOUS
10
65.9400729999999982
20
-140.9576140000000066
11
66.035310999999993
21
-140.8623759999999834
0
LINE
8
BLACK
6
CONTINUOUS
10
66.035310999999993
20
-140.8623759999999834
11
66.2257869999999969
21
-140.7671379999999886
0
LINE
8
BLACK
6
CONTINUOUS
10
66.2257869999999969
20
-140.7671379999999886
11
66.7019779999999969
21
-140.7671379999999886
0
LINE
8
BLACK
6
CONTINUOUS
10
66.7019779999999969
20
-140.7671379999999886
11
66.8924540000000007
21
-140.8623759999999834
0
LINE
8
BLACK
6
CONTINUOUS
10
66.8924540000000007
20
-140.8623759999999834
11
66.9876919999999956
21
-140.9576140000000066
0
LINE
8
BLACK
6
CONTINUOUS
10
66.9876919999999956
20
-140.9576140000000066
11
67.0829299999999904
21
-141.1480899999999963
0
LINE
8
BLACK
6
CONTINUOUS
10
67.0829299999999904
20
-141.1480899999999963
11
67.0829299999999904
21
-141.3385659999999859
0
LINE
8
BLACK
6
CONTINUOUS
10
67.0829299999999904
20
-141.3385659999999859
11
66.9876919999999956
21
-141.6242799999999988
0
LINE
8
BLACK
6
CONTINUOUS
10
66.9876919999999956
20
-141.6242799999999988
11
65.8448350000000033
21
-142.7671379999999886
0
LINE
8
BLACK
6
CONTINUOUS
10
65.8448350000000033
20
-142.7671379999999886
11
67.0829299999999904
21
-142.7671379999999886
0
LINE
8
BLACK
6
CONTINUOUS
10
68.3210249999999917
20
-140.7671379999999886
11
68.511501999999993
21
-140.7671379999999886
0
LINE
8
BLACK
6
CONTINUOUS
10
68.511501999999993
20
-140.7671379999999886
11
68.7019779999999969
21
-140.8623759999999834
0
LINE
8
BLACK
6
CONTINUOUS
10
68.7019779999999969
20
-140.8623759999999834
11
68.7972159999999917
21
-140.9576140000000066
0
LINE
8
BLACK
6
CONTINUOUS
10
68.7972159999999917
20
-140.9576140000000066
11
68.8924540000000007
21
-141.1480899999999963
0
LINE
8
BLACK
6
CONTINUOUS
10
68.8924540000000007
20
-141.1480899999999963
11
68.9876919999999956
21
-141.529042000000004
0
LINE
8
BLACK
6
CONTINUOUS
10
68.9876919999999956
20
-141.529042000000004
11
68.9876919999999956
21
-142.005233000000004
0
LINE
8
BLACK
6
CONTINUOUS
10
68.9876919999999956
20
-142.005233000000004
11
68.8924540000000007
21
-142.3861849999999833
0
LINE
8
BLACK
6
CONTINUOUS
10
68.8924540000000007
20
-142.3861849999999833
11
68.7972159999999917
21
-142.5766610000000014
0
LINE
8
BLACK
6
CONTINUOUS
10
68.7972159999999917
20
-142.5766610000000014
11
68.7019779999999969
21
-142.6718999999999937
0
LINE
8
BLACK
6
CONTINUOUS
10
68.7019779999999969
20
-142.6718999999999937
11
68.511501999999993
21
-142.7671379999999886
0
LINE
8
BLACK
6
CONTINUOUS
10
68.511501999999993
20
-142.7671379999999886
11
68.3210249999999917
21
-142.7671379999999886
0
LINE
8
BLACK
6
CONTINUOUS
10
68.3210249999999917
20
-142.7671379999999886
11
68.130549000000002
21
-142.6718999999999937
0
LINE
8
BLACK
6
CONTINUOUS
10
68.130549000000002
20
-142.6718999999999937
11
68.035310999999993
21
-142.5766610000000014
0
LINE
8
BLACK
6
CONTINUOUS
10
68.035310999999993
20
-142.5766610000000014
11
67.9400729999999982
21
-142.3861849999999833
0
LINE
8
BLACK
6
CONTINUOUS
10
67.9400729999999982
20
-142.3861849999999833
11
67.8448350000000033
21
-142.005233000000004
0
LINE
8
BLACK
6
CONTINUOUS
10
67.8448350000000033
20
-142.005233000000004
11
67.8448350000000033
21
-141.529042000000004
0
LINE
8
BLACK
6
CONTINUOUS
10
67.8448350000000033
20
-141.529042000000004
11
67.9400729999999982
21
-141.1480899999999963
0
LINE
8
BLACK
6
CONTINUOUS
10
67.9400729999999982
20
-141.1480899999999963
11
68.035310999999993
21
-140.9576140000000066
0
LINE
8
BLACK
6
CONTINUOUS
10
68.035310999999993
20
-140.9576140000000066
11
68.130549000000002
21
-140.8623759999999834
0
LINE
8
BLACK
6
CONTINUOUS
10
68.130549000000002
20
-140.8623759999999834
11
68.3210249999999917
21
-140.7671379999999886
0
LINE
8
BLACK
6
CONTINUOUS
10
70.2257869999999969
20
-140.7671379999999886
11
70.4162639999999982
21
-140.7671379999999886
0
LINE
8
BLACK
6
CONTINUOUS
10
70.4162639999999982
20
-140.7671379999999886
11
70.6067400000000021
21
-140.8623759999999834
0
LINE
8
BLACK
6
CONTINUOUS
10
70.6067400000000021
20
-140.8623759999999834
11
70.7019779999999969
21
-140.9576140000000066
0
LINE
8
BLACK
6
CONTINUOUS
10
70.7019779999999969
20
-140.9576140000000066
11
70.7972159999999917
21
-141.1480899999999963
0
LINE
8
BLACK
6
CONTINUOUS
10
70.7972159999999917
20
-141.1480899999999963
11
70.8924540000000007
21
-141.529042000000004
0
LINE
8
BLACK
6
CONTINUOUS
10
70.8924540000000007
20
-141.529042000000004
11
70.8924540000000007
21
-142.005233000000004
0
LINE
8
BLACK
6
CONTINUOUS
10
70.8924540000000007
20
-142.005233000000004
11
70.7972159999999917
21
-142.3861849999999833
0
LINE
8
BLACK
6
CONTINUOUS
10
70.7972159999999917
20
-142.3861849999999833
11
70.7019779999999969
21
-142.5766610000000014
0
LINE
8
BLACK
6
CONTINUOUS
10
70.7019779999999969
20
-142.5766610000000014
11
70.6067400000000021
21
-142.6718999999999937
0
LINE
8
BLACK
6
CONTINUOUS
10
70.6067400000000021
20
-142.6718999999999937
11
70.4162639999999982
21
-142.7671379999999886
0
LINE
8
BLACK
6
CONTINUOUS
10
70.4162639999999982
20
-142.7671379999999886
11
70.2257869999999969
21
-142.7671379999999886
0
LINE
8
BLACK
6
CONTINUOUS
10
70.2257869999999969
20
-142.7671379999999886
11
70.035310999999993
21
-142.6718999999999937
0
LINE
8
BLACK
6
CONTINUOUS
10
70.035310999999993
20
-142.6718999999999937
11
69.9400729999999982
21
-142.5766610000000014
0
LINE
8
BLACK
6
CONTINUOUS
10
69.9400729999999982
20
-142.5766610000000014
11
69.8448350000000033
21
-142.3861849999999833
0
LINE
8
BLACK
6
CONTINUOUS
10
69.8448350000000033
20
-142.3861849999999833
11
69.7495969999999943
21
-142.005233000000004
0
LINE
8
BLACK
6
CONTINUOUS
10
69.7495969999999943
20
-142.005233000000004
11
69.7495969999999943
21
-141.529042000000004
0
LINE
8
BLACK
6
CONTINUOUS
10
69.7495969999999943
20
-141.529042000000004
11
69.8448350000000033
21
-141.1480899999999963
0
LINE
8
BLACK
6
CONTINUOUS
10
69.8448350000000033
20
-141.1480899999999963
11
69.9400729999999982
21
-140.9576140000000066
0
LINE
8
BLACK
6
CONTINUOUS
10
69.9400729999999982
20
-140.9576140000000066
11
70.035310999999993
21
-140.8623759999999834
0
LINE
8
BLACK
6
CONTINUOUS
10
70.035310999999993
20
-140.8623759999999834
11
70.2257869999999969
21
-140.7671379999999886
0
LINE
8
BLACK
6
CONTINUOUS
10
71.7495969999999943
20
-142.7671379999999886
11
71.7495969999999943
21
-141.4338039999999808
0
LINE
8
BLACK
6
CONTINUOUS
10
71.7495969999999943
20
-141.6242799999999988
11
71.8448350000000033
21
-141.529042000000004
0
LINE
8
BLACK
6
CONTINUOUS
10
71.8448350000000033
20
-141.529042000000004
11
72.035310999999993
21
-141.4338039999999808
0
LINE
8
BLACK
6
CONTINUOUS
10
72.035310999999993
20
-141.4338039999999808
11
72.3210260000000034
21
-141.4338039999999808
0
LINE
8
BLACK
6
CONTINUOUS
10
72.3210260000000034
20
-141.4338039999999808
11
72.511501999999993
21
-141.529042000000004
0
LINE
8
BLACK
6
CONTINUOUS
10
72.511501999999993
20
-141.529042000000004
11
72.6067400000000021
21
-141.7195189999999911
0
LINE
8
BLACK
6
CONTINUOUS
10
72.6067400000000021
20
-141.7195189999999911
11
72.6067400000000021
21
-142.7671379999999886
0
LINE
8
BLACK
6
CONTINUOUS
10
72.6067400000000021
20
-141.7195189999999911
11
72.7019779999999969
21
-141.529042000000004
0
LINE
8
BLACK
6
CONTINUOUS
10
72.7019779999999969
20
-141.529042000000004
11
72.8924540000000007
21
-141.4338039999999808
0
LINE
8
BLACK
6
CONTINUOUS
10
72.8924540000000007
20
-141.4338039999999808
11
73.1781679999999994
21
-141.4338039999999808
0
LINE
8
BLACK
6
CONTINUOUS
10
73.1781679999999994
20
-141.4338039999999808
11
73.3686450000000008
21
-141.529042000000004
0
LINE
8
BLACK
6
CONTINUOUS
10
73.3686450000000008
20
-141.529042000000004
11
73.4638829999999956
21
-141.7195189999999911
0
LINE
8
BLACK
6
CONTINUOUS
10
73.4638829999999956
20
-141.7195189999999911
11
73.4638829999999956
21
-142.7671379999999886
0
LINE
8
BLACK
6
CONTINUOUS
10
74.4162639999999982
20
-142.7671379999999886
11
74.4162639999999982
21
-141.4338039999999808
0
LINE
8
BLACK
6
CONTINUOUS
10
74.4162639999999982
20
-141.6242799999999988
11
74.511501999999993
21
-141.529042000000004
0
LINE
8
BLACK
6
CONTINUOUS
10
74.511501999999993
20
-141.529042000000004
11
74.7019779999999969
21
-141.4338039999999808
0
LINE
8
BLACK
6
CONTINUOUS
10
74.7019779999999969
20
-141.4338039999999808
11
74.987692999999993
21
-141.4338039999999808
0
LINE
8
BLACK
6
CONTINUOUS
10
74.987692999999993
20
-141.4338039999999808
11
75.1781689999999969
21
-141.529042000000004
0
LINE
8
BLACK
6
CONTINUOUS
10
75.1781689999999969
20
-141.529042000000004
11
75.2734069999999917
21
-141.7195189999999911
0
LINE
8
BLACK
6
CONTINUOUS
10
75.2734069999999917
20
-141.7195189999999911
11
75.2734069999999917
21
-142.7671379999999886
0
LINE
8
BLACK
6
CONTINUOUS
10
75.2734069999999917
20
-141.7195189999999911
11
75.3686450000000008
21
-141.529042000000004
0
LINE
8
BLACK
6
CONTINUOUS
10
75.3686450000000008
20
-141.529042000000004
11
75.5591209999999904
21
-141.4338039999999808
0
LINE
8
BLACK
6
CONTINUOUS
10
75.5591209999999904
20
-141.4338039999999808
11
75.8448350000000033
21
-141.4338039999999808
0
LINE
8
BLACK
6
CONTINUOUS
10
75.8448350000000033
20
-141.4338039999999808
11
76.0353119999999905
21
-141.529042000000004
0
LINE
8
BLACK
6
CONTINUOUS
10
76.0353119999999905
20
-141.529042000000004
11
76.1305499999999995
21
-141.7195189999999911
0
LINE
8
BLACK
6
CONTINUOUS
10
76.1305499999999995
20
-141.7195189999999911
11
76.1305499999999995
21
-142.7671379999999886
0
LINE
8
BLACK
6
CONTINUOUS
10
80.0353119999999905
20
-140.6718999999999937
11
78.3210270000000008
21
-143.2433279999999911
0
LINE
8
BLACK
6
CONTINUOUS
10
82.6067409999999995
20
-140.7671379999999886
11
82.7972180000000009
21
-140.7671379999999886
0
LINE
8
BLACK
6
CONTINUOUS
10
82.7972180000000009
20
-140.7671379999999886
11
82.9876939999999905
21
-140.8623759999999834
0
LINE
8
BLACK
6
CONTINUOUS
10
82.9876939999999905
20
-140.8623759999999834
11
83.0829319999999996
21
-140.9576140000000066
0
LINE
8
BLACK
6
CONTINUOUS
10
83.0829319999999996
20
-140.9576140000000066
11
83.1781699999999944
21
-141.1480899999999963
0
LINE
8
BLACK
6
CONTINUOUS
10
83.1781699999999944
20
-141.1480899999999963
11
83.2734079999999892
21
-141.529042000000004
0
LINE
8
BLACK
6
CONTINUOUS
10
83.2734079999999892
20
-141.529042000000004
11
83.2734079999999892
21
-142.005233000000004
0
LINE
8
BLACK
6
CONTINUOUS
10
83.2734079999999892
20
-142.005233000000004
11
83.1781699999999944
21
-142.3861849999999833
0
LINE
8
BLACK
6
CONTINUOUS
10
83.1781699999999944
20
-142.3861849999999833
11
83.0829319999999996
21
-142.5766610000000014
0
LINE
8
BLACK
6
CONTINUOUS
10
83.0829319999999996
20
-142.5766610000000014
11
82.9876939999999905
21
-142.6718999999999937
0
LINE
8
BLACK
6
CONTINUOUS
10
82.9876939999999905
20
-142.6718999999999937
11
82.7972180000000009
21
-142.7671379999999886
0
LINE
8
BLACK
6
CONTINUOUS
10
82.7972180000000009
20
-142.7671379999999886
11
82.6067409999999995
21
-142.7671379999999886
0
LINE
8
BLACK
6
CONTINUOUS
10
82.6067409999999995
20
-142.7671379999999886
11
82.4162649999999957
21
-142.6718999999999937
0
LINE
8
BLACK
6
CONTINUOUS
10
82.4162649999999957
20
-142.6718999999999937
11
82.3210270000000008
21
-142.5766610000000014
0
LINE
8
BLACK
6
CONTINUOUS
10
82.3210270000000008
20
-142.5766610000000014
11
82.2257889999999918
21
-142.3861849999999833
0
LINE
8
BLACK
6
CONTINUOUS
10
82.2257889999999918
20
-142.3861849999999833
11
82.130550999999997
21
-142.005233000000004
0
LINE
8
BLACK
6
CONTINUOUS
10
82.130550999999997
20
-142.005233000000004
11
82.130550999999997
21
-141.529042000000004
0
LINE
8
BLACK
6
CONTINUOUS
10
82.130550999999997
20
-141.529042000000004
11
82.2257889999999918
21
-141.1480899999999963
0
LINE
8
BLACK
6
CONTINUOUS
10
82.2257889999999918
20
-141.1480899999999963
11
82.3210270000000008
21
-140.9576140000000066
0
LINE
8
BLACK
6
CONTINUOUS
10
82.3210270000000008
20
-140.9576140000000066
11
82.4162649999999957
21
-140.8623759999999834
0
LINE
8
BLACK
6
CONTINUOUS
10
82.4162649999999957
20
-140.8623759999999834
11
82.6067409999999995
21
-140.7671379999999886
0
LINE
8
BLACK
6
CONTINUOUS
10
84.130550999999997
20
-142.5766610000000014
11
84.2257889999999918
21
-142.6718999999999937
0
LINE
8
BLACK
6
CONTINUOUS
10
84.2257889999999918
20
-142.6718999999999937
11
84.130550999999997
21
-142.7671379999999886
0
LINE
8
BLACK
6
CONTINUOUS
10
84.130550999999997
20
-142.7671379999999886
11
84.0353130000000021
21
-142.6718999999999937
0
LINE
8
BLACK
6
CONTINUOUS
10
84.0353130000000021
20
-142.6718999999999937
11
84.130550999999997
21
-142.5766610000000014
0
LINE
8
BLACK
6
CONTINUOUS
10
84.130550999999997
20
-142.5766610000000014
11
84.130550999999997
21
-142.7671379999999886
0
LINE
8
BLACK
6
CONTINUOUS
10
86.130550999999997
20
-142.7671379999999886
11
84.9876939999999905
21
-142.7671379999999886
0
LINE
8
BLACK
6
CONTINUOUS
10
85.5591220000000021
20
-142.7671379999999886
11
85.5591220000000021
21
-140.7671379999999886
0
LINE
8
BLACK
6
CONTINUOUS
10
85.5591220000000021
20
-140.7671379999999886
11
85.3686459999999983
21
-141.0528520000000015
0
LINE
8
BLACK
6
CONTINUOUS
10
85.3686459999999983
20
-141.0528520000000015
11
85.1781699999999944
21
-141.2433279999999911
0
LINE
8
BLACK
6
CONTINUOUS
10
85.1781699999999944
20
-141.2433279999999911
11
84.9876939999999905
21
-141.3385659999999859
0
LINE
8
BLACK
6
CONTINUOUS
10
86.8924559999999957
20
-140.9576140000000066
11
86.9876939999999905
21
-140.8623759999999834
0
LINE
8
BLACK
6
CONTINUOUS
10
86.9876939999999905
20
-140.8623759999999834
11
87.1781699999999944
21
-140.7671379999999886
0
LINE
8
BLACK
6
CONTINUOUS
10
87.1781699999999944
20
-140.7671379999999886
11
87.6543609999999944
21
-140.7671379999999886
0
LINE
8
BLACK
6
CONTINUOUS
10
87.6543609999999944
20
-140.7671379999999886
11
87.8448369999999983
21
-140.8623759999999834
0
LINE
8
BLACK
6
CONTINUOUS
10
87.8448369999999983
20
-140.8623759999999834
11
87.9400749999999931
21
-140.9576140000000066
0
LINE
8
BLACK
6
CONTINUOUS
10
87.9400749999999931
20
-140.9576140000000066
11
88.0353130000000021
21
-141.1480899999999963
0
LINE
8
BLACK
6
CONTINUOUS
10
88.0353130000000021
20
-141.1480899999999963
11
88.0353130000000021
21
-141.3385659999999859
0
LINE
8
BLACK
6
CONTINUOUS
10
88.0353130000000021
20
-141.3385659999999859
11
87.9400749999999931
21
-141.6242799999999988
0
LINE
8
BLACK
6
CONTINUOUS
10
87.9400749999999931
20
-141.6242799999999988
11
86.7972180000000009
21
-142.7671379999999886
0
LINE
8
BLACK
6
CONTINUOUS
10
86.7972180000000009
20
-142.7671379999999886
11
88.0353130000000021
21
-142.7671379999999886
0
LINE
8
BLACK
6
CONTINUOUS
10
89.7495989999999892
20
-140.7671379999999886
11
89.3686459999999983
21
-140.7671379999999886
0
LINE
8
BLACK
6
CONTINUOUS
10
89.3686459999999983
20
-140.7671379999999886
11
89.1781699999999944
21
-140.8623759999999834
0
LINE
8
BLACK
6
CONTINUOUS
10
89.1781699999999944
20
-140.8623759999999834
11
89.0829319999999996
21
-140.9576140000000066
0
LINE
8
BLACK
6
CONTINUOUS
10
89.0829319999999996
20
-140.9576140000000066
11
88.8924559999999957
21
-141.2433279999999911
0
LINE
8
BLACK
6
CONTINUOUS
10
88.8924559999999957
20
-141.2433279999999911
11
88.7972180000000009
21
-141.6242799999999988
0
LINE
8
BLACK
6
CONTINUOUS
10
88.7972180000000009
20
-141.6242799999999988
11
88.7972180000000009
21
-142.3861849999999833
0
LINE
8
BLACK
6
CONTINUOUS
10
88.7972180000000009
20
-142.3861849999999833
11
88.8924559999999957
21
-142.5766610000000014
0
LINE
8
BLACK
6
CONTINUOUS
10
88.8924559999999957
20
-142.5766610000000014
11
88.9876939999999905
21
-142.6718999999999937
0
LINE
8
BLACK
6
CONTINUOUS
10
88.9876939999999905
20
-142.6718999999999937
11
89.1781699999999944
21
-142.7671379999999886
0
LINE
8
BLACK
6
CONTINUOUS
10
89.1781699999999944
20
-142.7671379999999886
11
89.5591229999999996
21
-142.7671379999999886
0
LINE
8
BLACK
6
CONTINUOUS
10
89.5591229999999996
20
-142.7671379999999886
11
89.7495989999999892
21
-142.6718999999999937
0
LINE
8
BLACK
6
CONTINUOUS
10
89.7495989999999892
20
-142.6718999999999937
11
89.8448369999999983
21
-142.5766610000000014
0
LINE
8
BLACK
6
CONTINUOUS
10
89.8448369999999983
20
-142.5766610000000014
11
89.9400749999999931
21
-142.3861849999999833
0
LINE
8
BLACK
6
CONTINUOUS
10
89.9400749999999931
20
-142.3861849999999833
11
89.9400749999999931
21
-141.9099949999999808
0
LINE
8
BLACK
6
CONTINUOUS
10
89.9400749999999931
20
-141.9099949999999808
11
89.8448369999999983
21
-141.7195189999999911
0
LINE
8
BLACK
6
CONTINUOUS
10
89.8448369999999983
20
-141.7195189999999911
11
89.7495989999999892
21
-141.6242799999999988
0
LINE
8
BLACK
6
CONTINUOUS
10
89.7495989999999892
20
-141.6242799999999988
11
89.5591229999999996
21
-141.529042000000004
0
LINE
8
BLACK
6
CONTINUOUS
10
89.5591229999999996
20
-141.529042000000004
11
89.1781699999999944
21
-141.529042000000004
0
LINE
8
BLACK
6
CONTINUOUS
10
89.1781699999999944
20
-141.529042000000004
11
88.9876939999999905
21
-141.6242799999999988
0
LINE
8
BLACK
6
CONTINUOUS
10
88.9876939999999905
20
-141.6242799999999988
11
88.8924559999999957
21
-141.7195189999999911
0
LINE
8
BLACK
6
CONTINUOUS
10
88.8924559999999957
20
-141.7195189999999911
11
88.7972180000000009
21
-141.9099949999999808
0
LINE
8
BLACK
6
CONTINUOUS
10
91.1781699999999944
20
-140.7671379999999886
11
91.3686469999999957
21
-140.7671379999999886
0
LINE
8
BLACK
6
CONTINUOUS
10
91.3686469999999957
20
-140.7671379999999886
11
91.5591229999999996
21
-140.8623759999999834
0
LINE
8
BLACK
6
CONTINUOUS
10
91.5591229999999996
20
-140.8623759999999834
11
91.6543609999999944
21
-140.9576140000000066
0
LINE
8
BLACK
6
CONTINUOUS
10
91.6543609999999944
20
-140.9576140000000066
11
91.7495989999999892
21
-141.1480899999999963
0
LINE
8
BLACK
6
CONTINUOUS
10
91.7495989999999892
20
-141.1480899999999963
11
91.8448369999999983
21
-141.529042000000004
0
LINE
8
BLACK
6
CONTINUOUS
10
91.8448369999999983
20
-141.529042000000004
11
91.8448369999999983
21
-142.005233000000004
0
LINE
8
BLACK
6
CONTINUOUS
10
91.8448369999999983
20
-142.005233000000004
11
91.7495989999999892
21
-142.3861849999999833
0
LINE
8
BLACK
6
CONTINUOUS
10
91.7495989999999892
20
-142.3861849999999833
11
91.6543609999999944
21
-142.5766610000000014
0
LINE
8
BLACK
6
CONTINUOUS
10
91.6543609999999944
20
-142.5766610000000014
11
91.5591229999999996
21
-142.6718999999999937
0
LINE
8
BLACK
6
CONTINUOUS
10
91.5591229999999996
20
-142.6718999999999937
11
91.3686469999999957
21
-142.7671379999999886
0
LINE
8
BLACK
6
CONTINUOUS
10
91.3686469999999957
20
-142.7671379999999886
11
91.1781699999999944
21
-142.7671379999999886
0
LINE
8
BLACK
6
CONTINUOUS
10
91.1781699999999944
20
-142.7671379999999886
11
90.9876939999999905
21
-142.6718999999999937
0
LINE
8
BLACK
6
CONTINUOUS
10
90.9876939999999905
20
-142.6718999999999937
11
90.8924559999999957
21
-142.5766610000000014
0
LINE
8
BLACK
6
CONTINUOUS
10
90.8924559999999957
20
-142.5766610000000014
11
90.7972180000000009
21
-142.3861849999999833
0
LINE
8
BLACK
6
CONTINUOUS
10
90.7972180000000009
20
-142.3861849999999833
11
90.7019799999999918
21
-142.005233000000004
0
LINE
8
BLACK
6
CONTINUOUS
10
90.7019799999999918
20
-142.005233000000004
11
90.7019799999999918
21
-141.529042000000004
0
LINE
8
BLACK
6
CONTINUOUS
10
90.7019799999999918
20
-141.529042000000004
11
90.7972180000000009
21
-141.1480899999999963
0
LINE
8
BLACK
6
CONTINUOUS
10
90.7972180000000009
20
-141.1480899999999963
11
90.8924559999999957
21
-140.9576140000000066
0
LINE
8
BLACK
6
CONTINUOUS
10
90.8924559999999957
20
-140.9576140000000066
11
90.9876939999999905
21
-140.8623759999999834
0
LINE
8
BLACK
6
CONTINUOUS
10
90.9876939999999905
20
-140.8623759999999834
11
91.1781699999999944
21
-140.7671379999999886
0
LINE
8
BLACK
6
CONTINUOUS
10
92.606741999999997
20
-140.7671379999999886
11
92.606741999999997
21
-141.1480899999999963
0
LINE
8
BLACK
6
CONTINUOUS
10
93.3686469999999957
20
-140.7671379999999886
11
93.3686469999999957
21
-141.1480899999999963
0
LINE
8
BLACK
6
CONTINUOUS
10
96.3210289999999958
20
-143.529042000000004
11
96.2257899999999893
21
-143.4338039999999808
0
LINE
8
BLACK
6
CONTINUOUS
10
96.2257899999999893
20
-143.4338039999999808
11
96.0353139999999996
21
-143.1480899999999963
0
LINE
8
BLACK
6
CONTINUOUS
10
96.0353139999999996
20
-143.1480899999999963
11
95.9400759999999906
21
-142.9576140000000066
0
LINE
8
BLACK
6
CONTINUOUS
10
95.9400759999999906
20
-142.9576140000000066
11
95.8448379999999958
21
-142.6718999999999937
0
LINE
8
BLACK
6
CONTINUOUS
10
95.8448379999999958
20
-142.6718999999999937
11
95.7496000000000009
21
-142.1957089999999937
0
LINE
8
BLACK
6
CONTINUOUS
10
95.7496000000000009
20
-142.1957089999999937
11
95.7496000000000009
21
-141.814756999999986
0
LINE
8
BLACK
6
CONTINUOUS
10
95.7496000000000009
20
-141.814756999999986
11
95.8448379999999958
21
-141.3385659999999859
0
LINE
8
BLACK
6
CONTINUOUS
10
95.8448379999999958
20
-141.3385659999999859
11
95.9400759999999906
21
-141.0528520000000015
0
LINE
8
BLACK
6
CONTINUOUS
10
95.9400759999999906
20
-141.0528520000000015
11
96.0353139999999996
21
-140.8623759999999834
0
LINE
8
BLACK
6
CONTINUOUS
10
96.0353139999999996
20
-140.8623759999999834
11
96.2257899999999893
21
-140.5766610000000014
0
LINE
8
BLACK
6
CONTINUOUS
10
96.2257899999999893
20
-140.5766610000000014
11
96.3210289999999958
21
-140.4814230000000066
0
LINE
8
BLACK
6
CONTINUOUS
10
97.3686469999999957
20
-141.6242799999999988
11
97.1781709999999919
21
-141.529042000000004
0
LINE
8
BLACK
6
CONTINUOUS
10
97.1781709999999919
20
-141.529042000000004
11
97.082932999999997
21
-141.4338039999999808
0
LINE
8
BLACK
6
CONTINUOUS
10
97.082932999999997
20
-141.4338039999999808
11
96.9876950000000022
21
-141.2433279999999911
0
LINE
8
BLACK
6
CONTINUOUS
10
96.9876950000000022
20
-141.2433279999999911
11
96.9876950000000022
21
-141.1480899999999963
0
LINE
8
BLACK
6
CONTINUOUS
10
96.9876950000000022
20
-141.1480899999999963
11
97.082932999999997
21
-140.9576140000000066
0
LINE
8
BLACK
6
CONTINUOUS
10
97.082932999999997
20
-140.9576140000000066
11
97.1781709999999919
21
-140.8623759999999834
0
LINE
8
BLACK
6
CONTINUOUS
10
97.1781709999999919
20
-140.8623759999999834
11
97.3686469999999957
21
-140.7671379999999886
0
LINE
8
BLACK
6
CONTINUOUS
10
97.3686469999999957
20
-140.7671379999999886
11
97.7496000000000009
21
-140.7671379999999886
0
LINE
8
BLACK
6
CONTINUOUS
10
97.7496000000000009
20
-140.7671379999999886
11
97.9400759999999906
21
-140.8623759999999834
0
LINE
8
BLACK
6
CONTINUOUS
10
97.9400759999999906
20
-140.8623759999999834
11
98.0353139999999996
21
-140.9576140000000066
0
LINE
8
BLACK
6
CONTINUOUS
10
98.0353139999999996
20
-140.9576140000000066
11
98.1305519999999945
21
-141.1480899999999963
0
LINE
8
BLACK
6
CONTINUOUS
10
98.1305519999999945
20
-141.1480899999999963
11
98.1305519999999945
21
-141.2433279999999911
0
LINE
8
BLACK
6
CONTINUOUS
10
98.1305519999999945
20
-141.2433279999999911
11
98.0353139999999996
21
-141.4338039999999808
0
LINE
8
BLACK
6
CONTINUOUS
10
98.0353139999999996
20
-141.4338039999999808
11
97.9400759999999906
21
-141.529042000000004
0
LINE
8
BLACK
6
CONTINUOUS
10
97.9400759999999906
20
-141.529042000000004
11
97.7496000000000009
21
-141.6242799999999988
0
LINE
8
BLACK
6
CONTINUOUS
10
97.7496000000000009
20
-141.6242799999999988
11
97.3686469999999957
21
-141.6242799999999988
0
LINE
8
BLACK
6
CONTINUOUS
10
97.3686469999999957
20
-141.6242799999999988
11
97.1781709999999919
21
-141.7195189999999911
0
LINE
8
BLACK
6
CONTINUOUS
10
97.1781709999999919
20
-141.7195189999999911
11
97.082932999999997
21
-141.814756999999986
0
LINE
8
BLACK
6
CONTINUOUS
10
97.082932999999997
20
-141.814756999999986
11
96.9876950000000022
21
-142.005233000000004
0
LINE
8
BLACK
6
CONTINUOUS
10
96.9876950000000022
20
-142.005233000000004
11
96.9876950000000022
21
-142.3861849999999833
0
LINE
8
BLACK
6
CONTINUOUS
10
96.9876950000000022
20
-142.3861849999999833
11
97.082932999999997
21
-142.5766610000000014
0
LINE
8
BLACK
6
CONTINUOUS
10
97.082932999999997
20
-142.5766610000000014
11
97.1781709999999919
21
-142.6718999999999937
0
LINE
8
BLACK
6
CONTINUOUS
10
97.1781709999999919
20
-142.6718999999999937
11
97.3686469999999957
21
-142.7671379999999886
0
LINE
8
BLACK
6
CONTINUOUS
10
97.3686469999999957
20
-142.7671379999999886
11
97.7496000000000009
21
-142.7671379999999886
0
LINE
8
BLACK
6
CONTINUOUS
10
97.7496000000000009
20
-142.7671379999999886
11
97.9400759999999906
21
-142.6718999999999937
0
LINE
8
BLACK
6
CONTINUOUS
10
97.9400759999999906
20
-142.6718999999999937
11
98.0353139999999996
21
-142.5766610000000014
0
LINE
8
BLACK
6
CONTINUOUS
10
98.0353139999999996
20
-142.5766610000000014
11
98.1305519999999945
21
-142.3861849999999833
0
LINE
8
BLACK
6
CONTINUOUS
10
98.1305519999999945
20
-142.3861849999999833
11
98.1305519999999945
21
-142.005233000000004
0
LINE
8
BLACK
6
CONTINUOUS
10
98.1305519999999945
20
-142.005233000000004
11
98.0353139999999996
21
-141.814756999999986
0
LINE
8
BLACK
6
CONTINUOUS
10
98.0353139999999996
20
-141.814756999999986
11
97.9400759999999906
21
-141.7195189999999911
0
LINE
8
BLACK
6
CONTINUOUS
10
97.9400759999999906
20
-141.7195189999999911
11
97.7496000000000009
21
-141.6242799999999988
0
LINE
8
BLACK
6
CONTINUOUS
10
100.5115049999999997
20
-142.7671379999999886
11
100.5115049999999997
21
-140.7671379999999886
0
LINE
8
BLACK
6
CONTINUOUS
10
101.3686479999999932
20
-142.7671379999999886
11
101.3686479999999932
21
-141.7195189999999911
0
LINE
8
BLACK
6
CONTINUOUS
10
101.3686479999999932
20
-141.7195189999999911
11
101.2734099999999984
21
-141.529042000000004
0
LINE
8
BLACK
6
CONTINUOUS
10
101.2734099999999984
20
-141.529042000000004
11
101.0829339999999945
21
-141.4338039999999808
0
LINE
8
BLACK
6
CONTINUOUS
10
101.0829339999999945
20
-141.4338039999999808
11
100.7972189999999983
21
-141.4338039999999808
0
LINE
8
BLACK
6
CONTINUOUS
10
100.7972189999999983
20
-141.4338039999999808
11
100.6067429999999945
21
-141.529042000000004
0
LINE
8
BLACK
6
CONTINUOUS
10
100.6067429999999945
20
-141.529042000000004
11
100.5115049999999997
21
-141.6242799999999988
0
LINE
8
BLACK
6
CONTINUOUS
10
102.6067429999999945
20
-142.7671379999999886
11
102.4162669999999906
21
-142.6718999999999937
0
LINE
8
BLACK
6
CONTINUOUS
10
102.4162669999999906
20
-142.6718999999999937
11
102.3210289999999958
21
-142.5766610000000014
0
LINE
8
BLACK
6
CONTINUOUS
10
102.3210289999999958
20
-142.5766610000000014
11
102.225791000000001
21
-142.3861849999999833
0
LINE
8
BLACK
6
CONTINUOUS
10
102.225791000000001
20
-142.3861849999999833
11
102.225791000000001
21
-141.814756999999986
0
LINE
8
BLACK
6
CONTINUOUS
10
102.225791000000001
20
-141.814756999999986
11
102.3210289999999958
21
-141.6242799999999988
0
LINE
8
BLACK
6
CONTINUOUS
10
102.3210289999999958
20
-141.6242799999999988
11
102.4162669999999906
21
-141.529042000000004
0
LINE
8
BLACK
6
CONTINUOUS
10
102.4162669999999906
20
-141.529042000000004
11
102.6067429999999945
21
-141.4338039999999808
0
LINE
8
BLACK
6
CONTINUOUS
10
102.6067429999999945
20
-141.4338039999999808
11
102.8924579999999906
21
-141.4338039999999808
0
LINE
8
BLACK
6
CONTINUOUS
10
102.8924579999999906
20
-141.4338039999999808
11
103.0829339999999945
21
-141.529042000000004
0
LINE
8
BLACK
6
CONTINUOUS
10
103.0829339999999945
20
-141.529042000000004
11
103.1781719999999893
21
-141.6242799999999988
0
LINE
8
BLACK
6
CONTINUOUS
10
103.1781719999999893
20
-141.6242799999999988
11
103.2734099999999984
21
-141.814756999999986
0
LINE
8
BLACK
6
CONTINUOUS
10
103.2734099999999984
20
-141.814756999999986
11
103.2734099999999984
21
-142.3861849999999833
0
LINE
8
BLACK
6
CONTINUOUS
10
103.2734099999999984
20
-142.3861849999999833
11
103.1781719999999893
21
-142.5766610000000014
0
LINE
8
BLACK
6
CONTINUOUS
10
103.1781719999999893
20
-142.5766610000000014
11
103.0829339999999945
21
-142.6718999999999937
0
LINE
8
BLACK
6
CONTINUOUS
10
103.0829339999999945
20
-142.6718999999999937
11
102.8924579999999906
21
-142.7671379999999886
0
LINE
8
BLACK
6
CONTINUOUS
10
102.8924579999999906
20
-142.7671379999999886
11
102.6067429999999945
21
-142.7671379999999886
0
LINE
8
BLACK
6
CONTINUOUS
10
104.4162669999999906
20
-142.7671379999999886
11
104.225791000000001
21
-142.6718999999999937
0
LINE
8
BLACK
6
CONTINUOUS
10
104.225791000000001
20
-142.6718999999999937
11
104.1305529999999919
21
-142.4814230000000066
0
LINE
8
BLACK
6
CONTINUOUS
10
104.1305529999999919
20
-142.4814230000000066
11
104.1305529999999919
21
-140.7671379999999886
0
LINE
8
BLACK
6
CONTINUOUS
10
105.9400770000000023
20
-142.6718999999999937
11
105.7496009999999984
21
-142.7671379999999886
0
LINE
8
BLACK
6
CONTINUOUS
10
105.7496009999999984
20
-142.7671379999999886
11
105.3686479999999932
21
-142.7671379999999886
0
LINE
8
BLACK
6
CONTINUOUS
10
105.3686479999999932
20
-142.7671379999999886
11
105.1781719999999893
21
-142.6718999999999937
0
LINE
8
BLACK
6
CONTINUOUS
10
105.1781719999999893
20
-142.6718999999999937
11
105.0829339999999945
21
-142.4814230000000066
0
LINE
8
BLACK
6
CONTINUOUS
10
105.0829339999999945
20
-142.4814230000000066
11
105.0829339999999945
21
-141.7195189999999911
0
LINE
8
BLACK
6
CONTINUOUS
10
105.0829339999999945
20
-141.7195189999999911
11
105.1781719999999893
21
-141.529042000000004
0
LINE
8
BLACK
6
CONTINUOUS
10
105.1781719999999893
20
-141.529042000000004
11
105.3686479999999932
21
-141.4338039999999808
0
LINE
8
BLACK
6
CONTINUOUS
10
105.3686479999999932
20
-141.4338039999999808
11
105.7496009999999984
21
-141.4338039999999808
0
LINE
8
BLACK
6
CONTINUOUS
10
105.7496009999999984
20
-141.4338039999999808
11
105.9400770000000023
21
-141.529042000000004
0
LINE
8
BLACK
6
CONTINUOUS
10
105.9400770000000023
20
-141.529042000000004
11
106.0353149999999971
21
-141.7195189999999911
0
LINE
8
BLACK
6
CONTINUOUS
10
106.0353149999999971
20
-141.7195189999999911
11
106.0353149999999971
21
-141.9099949999999808
0
LINE
8
BLACK
6
CONTINUOUS
10
106.0353149999999971
20
-141.9099949999999808
11
105.0829339999999945
21
-142.1004709999999989
0
LINE
8
BLACK
6
CONTINUOUS
10
106.7972199999999958
20
-142.6718999999999937
11
106.9876959999999997
21
-142.7671379999999886
0
LINE
8
BLACK
6
CONTINUOUS
10
106.9876959999999997
20
-142.7671379999999886
11
107.3686479999999932
21
-142.7671379999999886
0
LINE
8
BLACK
6
CONTINUOUS
10
107.3686479999999932
20
-142.7671379999999886
11
107.5591249999999945
21
-142.6718999999999937
0
LINE
8
BLACK
6
CONTINUOUS
10
107.5591249999999945
20
-142.6718999999999937
11
107.6543629999999894
21
-142.4814230000000066
0
LINE
8
BLACK
6
CONTINUOUS
10
107.6543629999999894
20
-142.4814230000000066
11
107.6543629999999894
21
-142.3861849999999833
0
LINE
8
BLACK
6
CONTINUOUS
10
107.6543629999999894
20
-142.3861849999999833
11
107.5591249999999945
21
-142.1957089999999937
0
LINE
8
BLACK
6
CONTINUOUS
10
107.5591249999999945
20
-142.1957089999999937
11
107.3686479999999932
21
-142.1004709999999989
0
LINE
8
BLACK
6
CONTINUOUS
10
107.3686479999999932
20
-142.1004709999999989
11
107.0829339999999945
21
-142.1004709999999989
0
LINE
8
BLACK
6
CONTINUOUS
10
107.0829339999999945
20
-142.1004709999999989
11
106.8924579999999906
21
-142.005233000000004
0
LINE
8
BLACK
6
CONTINUOUS
10
106.8924579999999906
20
-142.005233000000004
11
106.7972199999999958
21
-141.814756999999986
0
LINE
8
BLACK
6
CONTINUOUS
10
106.7972199999999958
20
-141.814756999999986
11
106.7972199999999958
21
-141.7195189999999911
0
LINE
8
BLACK
6
CONTINUOUS
10
106.7972199999999958
20
-141.7195189999999911
11
106.8924579999999906
21
-141.529042000000004
0
LINE
8
BLACK
6
CONTINUOUS
10
106.8924579999999906
20
-141.529042000000004
11
107.0829339999999945
21
-141.4338039999999808
0
LINE
8
BLACK
6
CONTINUOUS
10
107.0829339999999945
20
-141.4338039999999808
11
107.3686479999999932
21
-141.4338039999999808
0
LINE
8
BLACK
6
CONTINUOUS
10
107.3686479999999932
20
-141.4338039999999808
11
107.5591249999999945
21
-141.529042000000004
0
LINE
8
BLACK
6
CONTINUOUS
10
108.3210299999999933
20
-143.529042000000004
11
108.4162679999999881
21
-143.4338039999999808
0
LINE
8
BLACK
6
CONTINUOUS
10
108.4162679999999881
20
-143.4338039999999808
11
108.606743999999992
21
-143.1480899999999963
0
LINE
8
BLACK
6
CONTINUOUS
10
108.606743999999992
20
-143.1480899999999963
11
108.701982000000001
21
-142.9576140000000066
0
LINE
8
BLACK
6
CONTINUOUS
10
108.701982000000001
20
-142.9576140000000066
11
108.7972199999999958
21
-142.6718999999999937
0
LINE
8
BLACK
6
CONTINUOUS
10
108.7972199999999958
20
-142.6718999999999937
11
108.8924579999999906
21
-142.1957089999999937
0
LINE
8
BLACK
6
CONTINUOUS
10
108.8924579999999906
20
-142.1957089999999937
11
108.8924579999999906
21
-141.814756999999986
0
LINE
8
BLACK
6
CONTINUOUS
10
108.8924579999999906
20
-141.814756999999986
11
108.7972199999999958
21
-141.3385659999999859
0
LINE
8
BLACK
6
CONTINUOUS
10
108.7972199999999958
20
-141.3385659999999859
11
108.701982000000001
21
-141.0528520000000015
0
LINE
8
BLACK
6
CONTINUOUS
10
108.701982000000001
20
-141.0528520000000015
11
108.606743999999992
21
-140.8623759999999834
0
LINE
8
BLACK
6
CONTINUOUS
10
108.606743999999992
20
-140.8623759999999834
11
108.4162679999999881
21
-140.5766610000000014
0
LINE
8
BLACK
6
CONTINUOUS
10
108.4162679999999881
20
-140.5766610000000014
11
108.3210299999999933
21
-140.4814230000000066
0
LINE
8
BLACK
6
CONTINUOUS
10
111.9400779999999997
20
-143.529042000000004
11
111.8448389999999932
21
-143.4338039999999808
0
LINE
8
BLACK
6
CONTINUOUS
10
111.8448389999999932
20
-143.4338039999999808
11
111.6543629999999894
21
-143.1480899999999963
0
LINE
8
BLACK
6
CONTINUOUS
10
111.6543629999999894
20
-143.1480899999999963
11
111.5591249999999945
21
-142.9576140000000066
0
LINE
8
BLACK
6
CONTINUOUS
10
111.5591249999999945
20
-142.9576140000000066
11
111.4638869999999997
21
-142.6718999999999937
0
LINE
8
BLACK
6
CONTINUOUS
10
111.4638869999999997
20
-142.6718999999999937
11
111.3686489999999907
21
-142.1957089999999937
0
LINE
8
BLACK
6
CONTINUOUS
10
111.3686489999999907
20
-142.1957089999999937
11
111.3686489999999907
21
-141.814756999999986
0
LINE
8
BLACK
6
CONTINUOUS
10
111.3686489999999907
20
-141.814756999999986
11
111.4638869999999997
21
-141.3385659999999859
0
LINE
8
BLACK
6
CONTINUOUS
10
111.4638869999999997
20
-141.3385659999999859
11
111.5591249999999945
21
-141.0528520000000015
0
LINE
8
BLACK
6
CONTINUOUS
10
111.5591249999999945
20
-141.0528520000000015
11
111.6543629999999894
21
-140.8623759999999834
0
LINE
8
BLACK
6
CONTINUOUS
10
111.6543629999999894
20
-140.8623759999999834
11
111.8448389999999932
21
-140.5766610000000014
0
LINE
8
BLACK
6
CONTINUOUS
10
111.8448389999999932
20
-140.5766610000000014
11
111.9400779999999997
21
-140.4814230000000066
0
LINE
8
BLACK
6
CONTINUOUS
10
112.701982000000001
20
-141.4338039999999808
11
112.701982000000001
21
-142.7671379999999886
0
LINE
8
BLACK
6
CONTINUOUS
10
112.701982000000001
20
-141.6242799999999988
11
112.7972199999999958
21
-141.529042000000004
0
LINE
8
BLACK
6
CONTINUOUS
10
112.7972199999999958
20
-141.529042000000004
11
112.9876959999999997
21
-141.4338039999999808
0
LINE
8
BLACK
6
CONTINUOUS
10
112.9876959999999997
20
-141.4338039999999808
11
113.2734109999999959
21
-141.4338039999999808
0
LINE
8
BLACK
6
CONTINUOUS
10
113.2734109999999959
20
-141.4338039999999808
11
113.4638869999999997
21
-141.529042000000004
0
LINE
8
BLACK
6
CONTINUOUS
10
113.4638869999999997
20
-141.529042000000004
11
113.5591249999999945
21
-141.7195189999999911
0
LINE
8
BLACK
6
CONTINUOUS
10
113.5591249999999945
20
-141.7195189999999911
11
113.5591249999999945
21
-142.7671379999999886
0
LINE
8
BLACK
6
CONTINUOUS
10
114.7972199999999958
20
-142.7671379999999886
11
114.606743999999992
21
-142.6718999999999937
0
LINE
8
BLACK
6
CONTINUOUS
10
114.606743999999992
20
-142.6718999999999937
11
114.5115059999999971
21
-142.5766610000000014
0
LINE
8
BLACK
6
CONTINUOUS
10
114.5115059999999971
20
-142.5766610000000014
11
114.4162679999999881
21
-142.3861849999999833
0
LINE
8
BLACK
6
CONTINUOUS
10
114.4162679999999881
20
-142.3861849999999833
11
114.4162679999999881
21
-141.814756999999986
0
LINE
8
BLACK
6
CONTINUOUS
10
114.4162679999999881
20
-141.814756999999986
11
114.5115059999999971
21
-141.6242799999999988
0
LINE
8
BLACK
6
CONTINUOUS
10
114.5115059999999971
20
-141.6242799999999988
11
114.606743999999992
21
-141.529042000000004
0
LINE
8
BLACK
6
CONTINUOUS
10
114.606743999999992
20
-141.529042000000004
11
114.7972199999999958
21
-141.4338039999999808
0
LINE
8
BLACK
6
CONTINUOUS
10
114.7972199999999958
20
-141.4338039999999808
11
115.082934999999992
21
-141.4338039999999808
0
LINE
8
BLACK
6
CONTINUOUS
10
115.082934999999992
20
-141.4338039999999808
11
115.2734109999999959
21
-141.529042000000004
0
LINE
8
BLACK
6
CONTINUOUS
10
115.2734109999999959
20
-141.529042000000004
11
115.3686489999999907
21
-141.6242799999999988
0
LINE
8
BLACK
6
CONTINUOUS
10
115.3686489999999907
20
-141.6242799999999988
11
115.4638869999999997
21
-141.814756999999986
0
LINE
8
BLACK
6
CONTINUOUS
10
115.4638869999999997
20
-141.814756999999986
11
115.4638869999999997
21
-142.3861849999999833
0
LINE
8
BLACK
6
CONTINUOUS
10
115.4638869999999997
20
-142.3861849999999833
11
115.3686489999999907
21
-142.5766610000000014
0
LINE
8
BLACK
6
CONTINUOUS
10
115.3686489999999907
20
-142.5766610000000014
11
115.2734109999999959
21
-142.6718999999999937
0
LINE
8
BLACK
6
CONTINUOUS
10
115.2734109999999959
20
-142.6718999999999937
11
115.082934999999992
21
-142.7671379999999886
0
LINE
8
BLACK
6
CONTINUOUS
10
115.082934999999992
20
-142.7671379999999886
11
114.7972199999999958
21
-142.7671379999999886
0
LINE
8
BLACK
6
CONTINUOUS
10
116.0353159999999946
20
-141.4338039999999808
11
116.7972199999999958
21
-141.4338039999999808
0
LINE
8
BLACK
6
CONTINUOUS
10
116.3210299999999933
20
-140.7671379999999886
11
116.3210299999999933
21
-142.4814230000000066
0
LINE
8
BLACK
6
CONTINUOUS
10
116.3210299999999933
20
-142.4814230000000066
11
116.4162679999999881
21
-142.6718999999999937
0
LINE
8
BLACK
6
CONTINUOUS
10
116.4162679999999881
20
-142.6718999999999937
11
116.606743999999992
21
-142.7671379999999886
0
LINE
8
BLACK
6
CONTINUOUS
10
116.606743999999992
20
-142.7671379999999886
11
116.7972199999999958
21
-142.7671379999999886
0
LINE
8
BLACK
6
CONTINUOUS
10
118.9876969999999972
20
-141.4338039999999808
11
118.9876969999999972
21
-143.4338039999999808
0
LINE
8
BLACK
6
CONTINUOUS
10
118.9876969999999972
20
-141.529042000000004
11
119.178173000000001
21
-141.4338039999999808
0
LINE
8
BLACK
6
CONTINUOUS
10
119.178173000000001
20
-141.4338039999999808
11
119.559125999999992
21
-141.4338039999999808
0
LINE
8
BLACK
6
CONTINUOUS
10
119.559125999999992
20
-141.4338039999999808
11
119.7496019999999959
21
-141.529042000000004
0
LINE
8
BLACK
6
CONTINUOUS
10
119.7496019999999959
20
-141.529042000000004
11
119.8448399999999907
21
-141.6242799999999988
0
LINE
8
BLACK
6
CONTINUOUS
10
119.8448399999999907
20
-141.6242799999999988
11
119.9400779999999997
21
-141.814756999999986
0
LINE
8
BLACK
6
CONTINUOUS
10
119.9400779999999997
20
-141.814756999999986
11
119.9400779999999997
21
-142.3861849999999833
0
LINE
8
BLACK
6
CONTINUOUS
10
119.9400779999999997
20
-142.3861849999999833
11
119.8448399999999907
21
-142.5766610000000014
0
LINE
8
BLACK
6
CONTINUOUS
10
119.8448399999999907
20
-142.5766610000000014
11
119.7496019999999959
21
-142.6718999999999937
0
LINE
8
BLACK
6
CONTINUOUS
10
119.7496019999999959
20
-142.6718999999999937
11
119.559125999999992
21
-142.7671379999999886
0
LINE
8
BLACK
6
CONTINUOUS
10
119.559125999999992
20
-142.7671379999999886
11
119.178173000000001
21
-142.7671379999999886
0
LINE
8
BLACK
6
CONTINUOUS
10
119.178173000000001
20
-142.7671379999999886
11
118.9876969999999972
21
-142.6718999999999937
0
LINE
8
BLACK
6
CONTINUOUS
10
121.082934999999992
20
-142.7671379999999886
11
120.8924589999999881
21
-142.6718999999999937
0
LINE
8
BLACK
6
CONTINUOUS
10
120.8924589999999881
20
-142.6718999999999937
11
120.7972209999999933
21
-142.4814230000000066
0
LINE
8
BLACK
6
CONTINUOUS
10
120.7972209999999933
20
-142.4814230000000066
11
120.7972209999999933
21
-140.7671379999999886
0
LINE
8
BLACK
6
CONTINUOUS
10
122.7019829999999985
20
-142.7671379999999886
11
122.7019829999999985
21
-141.7195189999999911
0
LINE
8
BLACK
6
CONTINUOUS
10
122.7019829999999985
20
-141.7195189999999911
11
122.6067449999999894
21
-141.529042000000004
0
LINE
8
BLACK
6
CONTINUOUS
10
122.6067449999999894
20
-141.529042000000004
11
122.4162689999999998
21
-141.4338039999999808
0
LINE
8
BLACK
6
CONTINUOUS
10
122.4162689999999998
20
-141.4338039999999808
11
122.0353159999999946
21
-141.4338039999999808
0
LINE
8
BLACK
6
CONTINUOUS
10
122.0353159999999946
20
-141.4338039999999808
11
121.8448399999999907
21
-141.529042000000004
0
LINE
8
BLACK
6
CONTINUOUS
10
122.7019829999999985
20
-142.6718999999999937
11
122.5115069999999946
21
-142.7671379999999886
0
LINE
8
BLACK
6
CONTINUOUS
10
122.5115069999999946
20
-142.7671379999999886
11
122.0353159999999946
21
-142.7671379999999886
0
LINE
8
BLACK
6
CONTINUOUS
10
122.0353159999999946
20
-142.7671379999999886
11
121.8448399999999907
21
-142.6718999999999937
0
LINE
8
BLACK
6
CONTINUOUS
10
121.8448399999999907
20
-142.6718999999999937
11
121.7496019999999959
21
-142.4814230000000066
0
LINE
8
BLACK
6
CONTINUOUS
10
121.7496019999999959
20
-142.4814230000000066
11
121.7496019999999959
21
-142.2909469999999885
0
LINE
8
BLACK
6
CONTINUOUS
10
121.7496019999999959
20
-142.2909469999999885
11
121.8448399999999907
21
-142.1004709999999989
0
LINE
8
BLACK
6
CONTINUOUS
10
121.8448399999999907
20
-142.1004709999999989
11
122.0353159999999946
21
-142.005233000000004
0
LINE
8
BLACK
6
CONTINUOUS
10
122.0353159999999946
20
-142.005233000000004
11
122.5115069999999946
21
-142.005233000000004
0
LINE
8
BLACK
6
CONTINUOUS
10
122.5115069999999946
20
-142.005233000000004
11
122.7019829999999985
21
-141.9099949999999808
0
LINE
8
BLACK
6
CONTINUOUS
10
123.3686499999999882
20
-141.4338039999999808
11
124.1305539999999894
21
-141.4338039999999808
0
LINE
8
BLACK
6
CONTINUOUS
10
123.6543640000000011
20
-140.7671379999999886
11
123.6543640000000011
21
-142.4814230000000066
0
LINE
8
BLACK
6
CONTINUOUS
10
123.6543640000000011
20
-142.4814230000000066
11
123.7496019999999959
21
-142.6718999999999937
0
LINE
8
BLACK
6
CONTINUOUS
10
123.7496019999999959
20
-142.6718999999999937
11
123.9400779999999997
21
-142.7671379999999886
0
LINE
8
BLACK
6
CONTINUOUS
10
123.9400779999999997
20
-142.7671379999999886
11
124.1305539999999894
21
-142.7671379999999886
0
LINE
8
BLACK
6
CONTINUOUS
10
125.559125999999992
20
-142.6718999999999937
11
125.3686499999999882
21
-142.7671379999999886
0
LINE
8
BLACK
6
CONTINUOUS
10
125.3686499999999882
20
-142.7671379999999886
11
124.9876969999999972
21
-142.7671379999999886
0
LINE
8
BLACK
6
CONTINUOUS
10
124.9876969999999972
20
-142.7671379999999886
11
124.7972209999999933
21
-142.6718999999999937
0
LINE
8
BLACK
6
CONTINUOUS
10
124.7972209999999933
20
-142.6718999999999937
11
124.7019829999999985
21
-142.4814230000000066
0
LINE
8
BLACK
6
CONTINUOUS
10
124.7019829999999985
20
-142.4814230000000066
11
124.7019829999999985
21
-141.7195189999999911
0
LINE
8
BLACK
6
CONTINUOUS
10
124.7019829999999985
20
-141.7195189999999911
11
124.7972209999999933
21
-141.529042000000004
0
LINE
8
BLACK
6
CONTINUOUS
10
124.7972209999999933
20
-141.529042000000004
11
124.9876969999999972
21
-141.4338039999999808
0
LINE
8
BLACK
6
CONTINUOUS
10
124.9876969999999972
20
-141.4338039999999808
11
125.3686499999999882
21
-141.4338039999999808
0
LINE
8
BLACK
6
CONTINUOUS
10
125.3686499999999882
20
-141.4338039999999808
11
125.559125999999992
21
-141.529042000000004
0
LINE
8
BLACK
6
CONTINUOUS
10
125.559125999999992
20
-141.529042000000004
11
125.6543640000000011
21
-141.7195189999999911
0
LINE
8
BLACK
6
CONTINUOUS
10
125.6543640000000011
20
-141.7195189999999911
11
125.6543640000000011
21
-141.9099949999999808
0
LINE
8
BLACK
6
CONTINUOUS
10
125.6543640000000011
20
-141.9099949999999808
11
124.7019829999999985
21
-142.1004709999999989
0
LINE
8
BLACK
6
CONTINUOUS
10
127.3686499999999882
20
-142.7671379999999886
11
127.3686499999999882
21
-140.7671379999999886
0
LINE
8
BLACK
6
CONTINUOUS
10
127.3686499999999882
20
-142.6718999999999937
11
127.1781739999999985
21
-142.7671379999999886
0
LINE
8
BLACK
6
CONTINUOUS
10
127.1781739999999985
20
-142.7671379999999886
11
126.7972209999999933
21
-142.7671379999999886
0
LINE
8
BLACK
6
CONTINUOUS
10
126.7972209999999933
20
-142.7671379999999886
11
126.6067449999999894
21
-142.6718999999999937
0
LINE
8
BLACK
6
CONTINUOUS
10
126.6067449999999894
20
-142.6718999999999937
11
126.5115069999999946
21
-142.5766610000000014
0
LINE
8
BLACK
6
CONTINUOUS
10
126.5115069999999946
20
-142.5766610000000014
11
126.4162689999999998
21
-142.3861849999999833
0
LINE
8
BLACK
6
CONTINUOUS
10
126.4162689999999998
20
-142.3861849999999833
11
126.4162689999999998
21
-141.814756999999986
0
LINE
8
BLACK
6
CONTINUOUS
10
126.4162689999999998
20
-141.814756999999986
11
126.5115069999999946
21
-141.6242799999999988
0
LINE
8
BLACK
6
CONTINUOUS
10
126.5115069999999946
20
-141.6242799999999988
11
126.6067449999999894
21
-141.529042000000004
0
LINE
8
BLACK
6
CONTINUOUS
10
126.6067449999999894
20
-141.529042000000004
11
126.7972209999999933
21
-141.4338039999999808
0
LINE
8
BLACK
6
CONTINUOUS
10
126.7972209999999933
20
-141.4338039999999808
11
127.1781739999999985
21
-141.4338039999999808
0
LINE
8
BLACK
6
CONTINUOUS
10
127.1781739999999985
20
-141.4338039999999808
11
127.3686499999999882
21
-141.529042000000004
0
LINE
8
BLACK
6
CONTINUOUS
10
128.1305549999999869
20
-143.529042000000004
11
128.2257929999999817
21
-143.4338039999999808
0
LINE
8
BLACK
6
CONTINUOUS
10
128.2257929999999817
20
-143.4338039999999808
11
128.4162689999999998
21
-143.1480899999999963
0
LINE
8
BLACK
6
CONTINUOUS
10
128.4162689999999998
20
-143.1480899999999963
11
128.5115069999999946
21
-142.9576140000000066
0
LINE
8
BLACK
6
CONTINUOUS
10
128.5115069999999946
20
-142.9576140000000066
11
128.6067449999999894
21
-142.6718999999999937
0
LINE
8
BLACK
6
CONTINUOUS
10
128.6067449999999894
20
-142.6718999999999937
11
128.7019829999999843
21
-142.1957089999999937
0
LINE
8
BLACK
6
CONTINUOUS
10
128.7019829999999843
20
-142.1957089999999937
11
128.7019829999999843
21
-141.814756999999986
0
LINE
8
BLACK
6
CONTINUOUS
10
128.7019829999999843
20
-141.814756999999986
11
128.6067449999999894
21
-141.3385659999999859
0
LINE
8
BLACK
6
CONTINUOUS
10
128.6067449999999894
20
-141.3385659999999859
11
128.5115069999999946
21
-141.0528520000000015
0
LINE
8
BLACK
6
CONTINUOUS
10
128.5115069999999946
20
-141.0528520000000015
11
128.4162689999999998
21
-140.8623759999999834
0
LINE
8
BLACK
6
CONTINUOUS
10
128.4162689999999998
20
-140.8623759999999834
11
128.2257929999999817
21
-140.5766610000000014
0
LINE
8
BLACK
6
CONTINUOUS
10
128.2257929999999817
20
-140.5766610000000014
11
128.1305549999999869
21
-140.4814230000000066
  0
ENDSEC
  0
EOF
