%TF.GenerationSoftware,KiCad,Pcbnew,8.0.5*%
%TF.CreationDate,2024-09-28T10:39:20+08:00*%
%TF.ProjectId,ColecoVisionController,436f6c65-636f-4566-9973-696f6e436f6e,rev?*%
%TF.SameCoordinates,Original*%
%TF.FileFunction,Copper,L2,Bot*%
%TF.FilePolarity,Positive*%
%FSLAX46Y46*%
G04 Gerber Fmt 4.6, Leading zero omitted, Abs format (unit mm)*
G04 Created by KiCad (PCBNEW 8.0.5) date 2024-09-28 10:39:20*
%MOMM*%
%LPD*%
G01*
G04 APERTURE LIST*
G04 Aperture macros list*
%AMRoundRect*
0 Rectangle with rounded corners*
0 $1 Rounding radius*
0 $2 $3 $4 $5 $6 $7 $8 $9 X,Y pos of 4 corners*
0 Add a 4 corners polygon primitive as box body*
4,1,4,$2,$3,$4,$5,$6,$7,$8,$9,$2,$3,0*
0 Add four circle primitives for the rounded corners*
1,1,$1+$1,$2,$3*
1,1,$1+$1,$4,$5*
1,1,$1+$1,$6,$7*
1,1,$1+$1,$8,$9*
0 Add four rect primitives between the rounded corners*
20,1,$1+$1,$2,$3,$4,$5,0*
20,1,$1+$1,$4,$5,$6,$7,0*
20,1,$1+$1,$6,$7,$8,$9,0*
20,1,$1+$1,$8,$9,$2,$3,0*%
G04 Aperture macros list end*
%TA.AperFunction,ComponentPad*%
%ADD10C,1.524000*%
%TD*%
%TA.AperFunction,ComponentPad*%
%ADD11C,2.000000*%
%TD*%
%TA.AperFunction,ComponentPad*%
%ADD12R,1.700000X1.700000*%
%TD*%
%TA.AperFunction,ComponentPad*%
%ADD13O,1.700000X1.700000*%
%TD*%
%TA.AperFunction,SMDPad,CuDef*%
%ADD14RoundRect,0.250000X-1.400000X-0.600000X1.400000X-0.600000X1.400000X0.600000X-1.400000X0.600000X0*%
%TD*%
%TA.AperFunction,SMDPad,CuDef*%
%ADD15RoundRect,0.250000X1.400000X0.600000X-1.400000X0.600000X-1.400000X-0.600000X1.400000X-0.600000X0*%
%TD*%
%TA.AperFunction,SMDPad,CuDef*%
%ADD16RoundRect,0.250000X-0.600000X1.400000X-0.600000X-1.400000X0.600000X-1.400000X0.600000X1.400000X0*%
%TD*%
%TA.AperFunction,SMDPad,CuDef*%
%ADD17RoundRect,0.250000X0.600000X-1.400000X0.600000X1.400000X-0.600000X1.400000X-0.600000X-1.400000X0*%
%TD*%
%TA.AperFunction,Conductor*%
%ADD18C,0.250000*%
%TD*%
%TA.AperFunction,Conductor*%
%ADD19C,1.000000*%
%TD*%
%TA.AperFunction,Conductor*%
%ADD20C,0.300000*%
%TD*%
G04 APERTURE END LIST*
D10*
%TO.P,SW4,1,1*%
%TO.N,Net-(D15-K)*%
X80514000Y-108712000D03*
%TO.P,SW4,2,2*%
X80514000Y-96212000D03*
%TO.P,SW4,3,K*%
%TO.N,/WHITE(DIN8)*%
X85514000Y-96212000D03*
%TO.P,SW4,4,A*%
X85514000Y-108712000D03*
%TD*%
D11*
%TO.P,SW13,4,A*%
%TO.N,/RED(DIN5)*%
X128830000Y-121340000D03*
%TO.P,SW13,3,K*%
X135330000Y-121340000D03*
%TO.P,SW13,2,2*%
%TO.N,Net-(D20-K)*%
X135330000Y-116840000D03*
%TO.P,SW13,1,1*%
X128830000Y-116840000D03*
%TD*%
D12*
%TO.P,J1,1,Pin_1*%
%TO.N,/RED(DIN5)*%
X132655000Y-91461000D03*
D13*
%TO.P,J1,2,Pin_2*%
%TO.N,/BLACK(DIN4)*%
X135195000Y-91461000D03*
%TO.P,J1,3,Pin_3*%
%TO.N,unconnected-(J1-Pin_3-Pad3)*%
X137735000Y-91461000D03*
%TO.P,J1,4,Pin_4*%
%TO.N,/WHITE(DIN8)*%
X140275000Y-91461000D03*
%TO.P,J1,5,Pin_5*%
%TO.N,/BROWN(DIN3)*%
X142815000Y-91461000D03*
%TO.P,J1,6,Pin_6*%
%TO.N,/GREY(DIN2)*%
X145355000Y-91461000D03*
%TO.P,J1,7,Pin_7*%
%TO.N,/YELLOW(DIN6)*%
X147895000Y-91461000D03*
%TO.P,J1,8,Pin_8*%
%TO.N,/ORANGE(DIN1)*%
X150435000Y-91461000D03*
%TD*%
D11*
%TO.P,SW11,1,1*%
%TO.N,Net-(D22-K)*%
X138635000Y-106680000D03*
%TO.P,SW11,2,2*%
X145135000Y-106680000D03*
%TO.P,SW11,3,K*%
%TO.N,/RED(DIN5)*%
X145135000Y-111180000D03*
%TO.P,SW11,4,A*%
X138635000Y-111180000D03*
%TD*%
%TO.P,SW6,1,1*%
%TO.N,Net-(D3-K)*%
X180420000Y-109808000D03*
%TO.P,SW6,2,2*%
X185420000Y-109808000D03*
%TO.P,SW6,3,K*%
%TO.N,/WHITE(DIN8)*%
X185420000Y-114808000D03*
%TO.P,SW6,4,A*%
X180420000Y-114808000D03*
%TD*%
%TO.P,SW16,4,A*%
%TO.N,/RED(DIN5)*%
X128830000Y-131500000D03*
%TO.P,SW16,3,K*%
X135330000Y-131500000D03*
%TO.P,SW16,2,2*%
%TO.N,Net-(D21-K)*%
X135330000Y-127000000D03*
%TO.P,SW16,1,1*%
X128830000Y-127000000D03*
%TD*%
%TO.P,SW7,1,1*%
%TO.N,Net-(D4-K)*%
X128830000Y-96520000D03*
%TO.P,SW7,2,2*%
X135330000Y-96520000D03*
%TO.P,SW7,3,K*%
%TO.N,/RED(DIN5)*%
X135330000Y-101020000D03*
%TO.P,SW7,4,A*%
X128830000Y-101020000D03*
%TD*%
D10*
%TO.P,SW2,1,1*%
%TO.N,Net-(D2-K)*%
X102514000Y-118212000D03*
%TO.P,SW2,2,2*%
X90014000Y-118212000D03*
%TO.P,SW2,3,K*%
%TO.N,/WHITE(DIN8)*%
X90014000Y-113212000D03*
%TO.P,SW2,4,A*%
X102514000Y-113212000D03*
%TD*%
D11*
%TO.P,SW5,1,1*%
%TO.N,Net-(D16-K)*%
X194983000Y-95290000D03*
%TO.P,SW5,2,2*%
X199983000Y-95290000D03*
%TO.P,SW5,3,K*%
%TO.N,/RED(DIN5)*%
X199983000Y-100290000D03*
%TO.P,SW5,4,A*%
X194983000Y-100290000D03*
%TD*%
%TO.P,SW12,4,A*%
%TO.N,/RED(DIN5)*%
X148440000Y-111180000D03*
%TO.P,SW12,3,K*%
X154940000Y-111180000D03*
%TO.P,SW12,2,2*%
%TO.N,Net-(D13-K)*%
X154940000Y-106680000D03*
%TO.P,SW12,1,1*%
X148440000Y-106680000D03*
%TD*%
%TO.P,SW18,4,A*%
%TO.N,/RED(DIN5)*%
X148440000Y-131572000D03*
%TO.P,SW18,3,K*%
X154940000Y-131572000D03*
%TO.P,SW18,2,2*%
%TO.N,Net-(D14-K)*%
X154940000Y-127072000D03*
%TO.P,SW18,1,1*%
X148440000Y-127072000D03*
%TD*%
%TO.P,SW10,1,1*%
%TO.N,Net-(D18-K)*%
X128830000Y-106680000D03*
%TO.P,SW10,2,2*%
X135330000Y-106680000D03*
%TO.P,SW10,3,K*%
%TO.N,/RED(DIN5)*%
X135330000Y-111180000D03*
%TO.P,SW10,4,A*%
X128830000Y-111180000D03*
%TD*%
%TO.P,SW8,1,1*%
%TO.N,Net-(D8-K)*%
X138736000Y-96520000D03*
%TO.P,SW8,2,2*%
X145236000Y-96520000D03*
%TO.P,SW8,3,K*%
%TO.N,/RED(DIN5)*%
X145236000Y-101020000D03*
%TO.P,SW8,4,A*%
X138736000Y-101020000D03*
%TD*%
%TO.P,SW17,4,A*%
%TO.N,/RED(DIN5)*%
X138635000Y-131572000D03*
%TO.P,SW17,3,K*%
X145135000Y-131572000D03*
%TO.P,SW17,2,2*%
%TO.N,Net-(D11-K)*%
X145135000Y-127072000D03*
%TO.P,SW17,1,1*%
X138635000Y-127072000D03*
%TD*%
%TO.P,SW15,4,A*%
%TO.N,/RED(DIN5)*%
X148440000Y-121340000D03*
%TO.P,SW15,3,K*%
X154940000Y-121340000D03*
%TO.P,SW15,2,2*%
%TO.N,Net-(D27-K)*%
X154940000Y-116840000D03*
%TO.P,SW15,1,1*%
X148440000Y-116840000D03*
%TD*%
%TO.P,SW14,4,A*%
%TO.N,/RED(DIN5)*%
X138635000Y-121412000D03*
%TO.P,SW14,3,K*%
X145135000Y-121412000D03*
%TO.P,SW14,2,2*%
%TO.N,Net-(D10-K)*%
X145135000Y-116912000D03*
%TO.P,SW14,1,1*%
X138635000Y-116912000D03*
%TD*%
D10*
%TO.P,SW1,1,1*%
%TO.N,Net-(D17-K)*%
X90014000Y-86712000D03*
%TO.P,SW1,2,2*%
X102514000Y-86712000D03*
%TO.P,SW1,3,K*%
%TO.N,/WHITE(DIN8)*%
X102514000Y-91712000D03*
%TO.P,SW1,4,A*%
X90014000Y-91712000D03*
%TD*%
D11*
%TO.P,SW9,1,1*%
%TO.N,Net-(D12-K)*%
X148590000Y-96520000D03*
%TO.P,SW9,2,2*%
X155090000Y-96520000D03*
%TO.P,SW9,3,K*%
%TO.N,/RED(DIN5)*%
X155090000Y-101020000D03*
%TO.P,SW9,4,A*%
X148590000Y-101020000D03*
%TD*%
D10*
%TO.P,SW3,1,1*%
%TO.N,Net-(D1-K)*%
X112014000Y-96212000D03*
%TO.P,SW3,2,2*%
X112014000Y-108712000D03*
%TO.P,SW3,3,K*%
%TO.N,/WHITE(DIN8)*%
X107014000Y-108712000D03*
%TO.P,SW3,4,A*%
X107014000Y-96212000D03*
%TD*%
D14*
%TO.P,D26,1,K*%
%TO.N,Net-(D12-K)*%
X159040000Y-95976000D03*
%TO.P,D26,2,A*%
%TO.N,/ORANGE(DIN1)*%
X164540000Y-95976000D03*
%TD*%
%TO.P,D15,1,K*%
%TO.N,Net-(D15-K)*%
X78022000Y-116332000D03*
%TO.P,D15,2,A*%
%TO.N,/BROWN(DIN3)*%
X83522000Y-116332000D03*
%TD*%
D15*
%TO.P,D4,1,K*%
%TO.N,Net-(D4-K)*%
X124872000Y-95976000D03*
%TO.P,D4,2,A*%
%TO.N,/BLACK(DIN4)*%
X119372000Y-95976000D03*
%TD*%
%TO.P,D18,1,K*%
%TO.N,Net-(D18-K)*%
X124872000Y-98770000D03*
%TO.P,D18,2,A*%
%TO.N,/BROWN(DIN3)*%
X119372000Y-98770000D03*
%TD*%
D14*
%TO.P,D9,1,K*%
%TO.N,Net-(D22-K)*%
X159040000Y-101564000D03*
%TO.P,D9,2,A*%
%TO.N,/GREY(DIN2)*%
X164540000Y-101564000D03*
%TD*%
%TO.P,D13,1,K*%
%TO.N,Net-(D13-K)*%
X159040000Y-98770000D03*
%TO.P,D13,2,A*%
%TO.N,/ORANGE(DIN1)*%
X164540000Y-98770000D03*
%TD*%
%TO.P,D8,1,K*%
%TO.N,Net-(D8-K)*%
X158996000Y-109946000D03*
%TO.P,D8,2,A*%
%TO.N,/BROWN(DIN3)*%
X164496000Y-109946000D03*
%TD*%
%TO.P,D28,1,K*%
%TO.N,Net-(D14-K)*%
X158996000Y-118328000D03*
%TO.P,D28,2,A*%
%TO.N,/GREY(DIN2)*%
X164496000Y-118328000D03*
%TD*%
D15*
%TO.P,D6,1,K*%
%TO.N,Net-(D20-K)*%
X124872000Y-112740000D03*
%TO.P,D6,2,A*%
%TO.N,/BROWN(DIN3)*%
X119372000Y-112740000D03*
%TD*%
D14*
%TO.P,D12,1,K*%
%TO.N,Net-(D12-K)*%
X158996000Y-104358000D03*
%TO.P,D12,2,A*%
%TO.N,/BLACK(DIN4)*%
X164496000Y-104358000D03*
%TD*%
D15*
%TO.P,D24,1,K*%
%TO.N,Net-(D10-K)*%
X124872000Y-118328000D03*
%TO.P,D24,2,A*%
%TO.N,/GREY(DIN2)*%
X119372000Y-118328000D03*
%TD*%
%TO.P,D7,1,K*%
%TO.N,Net-(D21-K)*%
X124872000Y-115534000D03*
%TO.P,D7,2,A*%
%TO.N,/GREY(DIN2)*%
X119372000Y-115534000D03*
%TD*%
D16*
%TO.P,D1,1,K*%
%TO.N,Net-(D1-K)*%
X112014000Y-112820000D03*
%TO.P,D1,2,A*%
%TO.N,/BLACK(DIN4)*%
X112014000Y-118320000D03*
%TD*%
D15*
%TO.P,D5,1,K*%
%TO.N,Net-(D18-K)*%
X124872000Y-101564000D03*
%TO.P,D5,2,A*%
%TO.N,/GREY(DIN2)*%
X119372000Y-101564000D03*
%TD*%
D17*
%TO.P,D2,1,K*%
%TO.N,Net-(D2-K)*%
X105918000Y-124416000D03*
%TO.P,D2,2,A*%
%TO.N,/GREY(DIN2)*%
X105918000Y-118916000D03*
%TD*%
D14*
%TO.P,D27,1,K*%
%TO.N,Net-(D27-K)*%
X158996000Y-107152000D03*
%TO.P,D27,2,A*%
%TO.N,/GREY(DIN2)*%
X164496000Y-107152000D03*
%TD*%
D15*
%TO.P,D21,1,K*%
%TO.N,Net-(D21-K)*%
X124872000Y-123916000D03*
%TO.P,D21,2,A*%
%TO.N,/BLACK(DIN4)*%
X119372000Y-123916000D03*
%TD*%
%TO.P,D23,1,K*%
%TO.N,Net-(D10-K)*%
X124872000Y-109946000D03*
%TO.P,D23,2,A*%
%TO.N,/BLACK(DIN4)*%
X119372000Y-109946000D03*
%TD*%
%TO.P,D19,1,K*%
%TO.N,Net-(D18-K)*%
X124872000Y-104358000D03*
%TO.P,D19,2,A*%
%TO.N,/ORANGE(DIN1)*%
X119372000Y-104358000D03*
%TD*%
%TO.P,D20,1,K*%
%TO.N,Net-(D20-K)*%
X124916000Y-107152000D03*
%TO.P,D20,2,A*%
%TO.N,/BLACK(DIN4)*%
X119416000Y-107152000D03*
%TD*%
D14*
%TO.P,D3,1,K*%
%TO.N,Net-(D3-K)*%
X179104000Y-105818000D03*
%TO.P,D3,2,A*%
%TO.N,/YELLOW(DIN6)*%
X184604000Y-105818000D03*
%TD*%
%TO.P,D14,1,K*%
%TO.N,Net-(D14-K)*%
X159040000Y-121376000D03*
%TO.P,D14,2,A*%
%TO.N,/BLACK(DIN4)*%
X164540000Y-121376000D03*
%TD*%
%TO.P,D10,1,K*%
%TO.N,Net-(D10-K)*%
X158995000Y-115534000D03*
%TO.P,D10,2,A*%
%TO.N,/BROWN(DIN3)*%
X164495000Y-115534000D03*
%TD*%
%TO.P,D25,1,K*%
%TO.N,Net-(D11-K)*%
X158996000Y-124170000D03*
%TO.P,D25,2,A*%
%TO.N,/ORANGE(DIN1)*%
X164496000Y-124170000D03*
%TD*%
%TO.P,D16,1,K*%
%TO.N,Net-(D16-K)*%
X194013300Y-91738000D03*
%TO.P,D16,2,A*%
%TO.N,/YELLOW(DIN6)*%
X199513300Y-91738000D03*
%TD*%
%TO.P,D17,1,K*%
%TO.N,Net-(D17-K)*%
X112312000Y-92456000D03*
%TO.P,D17,2,A*%
%TO.N,/ORANGE(DIN1)*%
X117812000Y-92456000D03*
%TD*%
%TO.P,D22,1,K*%
%TO.N,Net-(D22-K)*%
X158996000Y-112740000D03*
%TO.P,D22,2,A*%
%TO.N,/BROWN(DIN3)*%
X164496000Y-112740000D03*
%TD*%
D15*
%TO.P,D11,1,K*%
%TO.N,Net-(D11-K)*%
X124872000Y-121122000D03*
%TO.P,D11,2,A*%
%TO.N,/GREY(DIN2)*%
X119372000Y-121122000D03*
%TD*%
D18*
%TO.N,Net-(D1-K)*%
X112014000Y-112820000D02*
X112014000Y-108712000D01*
%TO.N,/BLACK(DIN4)*%
X161871000Y-107935000D02*
X161596000Y-107660000D01*
X164540000Y-121376000D02*
X168009000Y-117907000D01*
X161135100Y-103040604D02*
X161135100Y-100131396D01*
X117722000Y-95976000D02*
X115837000Y-94091000D01*
X137424000Y-93690000D02*
X135195000Y-91461000D01*
X166185100Y-100389000D02*
X162894900Y-100389000D01*
X117610000Y-123916000D02*
X119372000Y-123916000D01*
X161596000Y-107660000D02*
X161596000Y-103501504D01*
X120573100Y-103183000D02*
X117726900Y-103183000D01*
X162565000Y-102427000D02*
X164496000Y-104358000D01*
X162894900Y-100389000D02*
X162565000Y-100718900D01*
X117726900Y-103183000D02*
X117397000Y-103512900D01*
X121797000Y-121517100D02*
X119398100Y-123916000D01*
X121797000Y-96751000D02*
X121797000Y-101959100D01*
X117397000Y-103512900D02*
X117397000Y-106895000D01*
X119416000Y-107152000D02*
X119416000Y-109902000D01*
X162565000Y-100718900D02*
X162565000Y-102427000D01*
X168009000Y-117907000D02*
X168009000Y-102212900D01*
X117397000Y-106895000D02*
X117654000Y-107152000D01*
X115837000Y-91610900D02*
X123318000Y-84129900D01*
X121797000Y-101959100D02*
X120573100Y-103183000D01*
X119372000Y-109946000D02*
X121022000Y-109946000D01*
X161596000Y-95468000D02*
X159818000Y-93690000D01*
X161135100Y-100131396D02*
X161596000Y-99670496D01*
X119416000Y-109902000D02*
X119372000Y-109946000D01*
X118522000Y-95126000D02*
X119372000Y-95976000D01*
X159818000Y-93690000D02*
X137424000Y-93690000D01*
X168009000Y-102212900D02*
X166185100Y-100389000D01*
X161871000Y-118707000D02*
X161871000Y-107935000D01*
X119372000Y-95976000D02*
X117722000Y-95976000D01*
X121797000Y-110721000D02*
X121797000Y-121517100D01*
X115837000Y-94091000D02*
X115837000Y-91610900D01*
X127863900Y-84129900D02*
X135195000Y-91461000D01*
X117654000Y-107152000D02*
X119416000Y-107152000D01*
X164540000Y-121376000D02*
X161871000Y-118707000D01*
X112014000Y-118320000D02*
X117610000Y-123916000D01*
X119398100Y-123916000D02*
X119372000Y-123916000D01*
X121022000Y-95976000D02*
X121797000Y-96751000D01*
X161596000Y-99670496D02*
X161596000Y-95468000D01*
X161596000Y-103501504D02*
X161135100Y-103040604D01*
X121022000Y-109946000D02*
X121797000Y-110721000D01*
X119372000Y-95976000D02*
X121022000Y-95976000D01*
X123318000Y-84129900D02*
X127863900Y-84129900D01*
%TO.N,Net-(D2-K)*%
X102514000Y-121012000D02*
X105918000Y-124416000D01*
X102514000Y-118212000D02*
X102514000Y-121012000D01*
%TO.N,/GREY(DIN2)*%
X121347000Y-111894900D02*
X121347000Y-115209000D01*
D19*
X166146000Y-107152000D02*
X164496000Y-107152000D01*
X166846000Y-107852000D02*
X166146000Y-107152000D01*
D18*
X81534000Y-117164100D02*
X83032151Y-118662251D01*
X145355000Y-91461000D02*
X137037000Y-83143000D01*
X162496000Y-100043288D02*
X162496000Y-94587208D01*
X119372000Y-101564000D02*
X117722000Y-101564000D01*
D19*
X164540000Y-101564000D02*
X166190000Y-101564000D01*
X167184000Y-102558000D02*
X167184000Y-106114000D01*
D18*
X104096000Y-117094000D02*
X105918000Y-118916000D01*
X162115000Y-100424288D02*
X162496000Y-100043288D01*
X118974000Y-115932000D02*
X108902000Y-115932000D01*
X162496000Y-94587208D02*
X160544792Y-92636000D01*
D19*
X164496000Y-118328000D02*
X166146000Y-118328000D01*
D18*
X104545749Y-83143000D02*
X81876900Y-105811849D01*
X162521000Y-103153712D02*
X162115000Y-102747712D01*
X81876900Y-105811849D02*
X81876900Y-115157000D01*
X81876900Y-115157000D02*
X81534000Y-115499900D01*
D19*
X166146000Y-118328000D02*
X166846000Y-117628000D01*
D18*
X162115000Y-102747712D02*
X162115000Y-100424288D01*
X88026498Y-118662251D02*
X89594749Y-117094000D01*
X119372000Y-115534000D02*
X118974000Y-115932000D01*
X81534000Y-115499900D02*
X81534000Y-117164100D01*
X89594749Y-117094000D02*
X104096000Y-117094000D01*
X137037000Y-83143000D02*
X104545749Y-83143000D01*
X160544792Y-92636000D02*
X146530000Y-92636000D01*
D19*
X166846000Y-117628000D02*
X166846000Y-107852000D01*
D18*
X162846000Y-107152000D02*
X162521000Y-106827000D01*
X116947000Y-102339000D02*
X116947000Y-110341100D01*
X121017100Y-111565000D02*
X121347000Y-111894900D01*
X164496000Y-107152000D02*
X162846000Y-107152000D01*
X116947000Y-110341100D02*
X118170900Y-111565000D01*
X121022000Y-115534000D02*
X119372000Y-115534000D01*
X119372000Y-115534000D02*
X119372000Y-121122000D01*
X117722000Y-101564000D02*
X116947000Y-102339000D01*
X146530000Y-92636000D02*
X145355000Y-91461000D01*
X121347000Y-115209000D02*
X121022000Y-115534000D01*
D19*
X166190000Y-101564000D02*
X167184000Y-102558000D01*
D18*
X162521000Y-106827000D02*
X162521000Y-103153712D01*
D19*
X167184000Y-106114000D02*
X166146000Y-107152000D01*
D18*
X83032151Y-118662251D02*
X88026498Y-118662251D01*
X108902000Y-115932000D02*
X105918000Y-118916000D01*
X118170900Y-111565000D02*
X121017100Y-111565000D01*
D19*
%TO.N,/YELLOW(DIN6)*%
X184604000Y-105818000D02*
X168697000Y-89911000D01*
X205243400Y-105818000D02*
X205243400Y-97468100D01*
X168697000Y-89911000D02*
X149445000Y-89911000D01*
X149445000Y-89911000D02*
X147895000Y-91461000D01*
X205243400Y-97468100D02*
X199513300Y-91738000D01*
X184604000Y-105818000D02*
X205243400Y-105818000D01*
%TO.N,Net-(D3-K)*%
X180340000Y-109982000D02*
X185340000Y-109982000D01*
X179104000Y-105818000D02*
X179104000Y-109180000D01*
X179538000Y-109180000D02*
X180340000Y-109982000D01*
X179104000Y-109180000D02*
X179538000Y-109180000D01*
D18*
%TO.N,Net-(D4-K)*%
X124872000Y-95976000D02*
X128322000Y-95976000D01*
X128322000Y-95976000D02*
X128830000Y-96484000D01*
%TO.N,Net-(D18-K)*%
X124872000Y-98770000D02*
X124872000Y-104358000D01*
X126544000Y-104358000D02*
X128830000Y-106644000D01*
X124872000Y-104358000D02*
X126544000Y-104358000D01*
%TO.N,Net-(D20-K)*%
X126847000Y-110791100D02*
X124898100Y-112740000D01*
X128830000Y-115048000D02*
X128830000Y-116876000D01*
X126847000Y-109083000D02*
X126847000Y-110791100D01*
X124872000Y-112740000D02*
X126522000Y-112740000D01*
X126522000Y-112740000D02*
X128830000Y-115048000D01*
X124916000Y-107152000D02*
X126847000Y-109083000D01*
X124898100Y-112740000D02*
X124872000Y-112740000D01*
%TO.N,/BROWN(DIN3)*%
X114896000Y-115482000D02*
X117638000Y-112740000D01*
X117722000Y-112740000D02*
X116497000Y-111515000D01*
X84372000Y-115482000D02*
X114896000Y-115482000D01*
X116497000Y-111515000D02*
X116497000Y-98895000D01*
X135024000Y-83670000D02*
X122832000Y-83670000D01*
X122832000Y-83670000D02*
X115387000Y-91115000D01*
X162554000Y-107981604D02*
X162554000Y-109654000D01*
D19*
X164496000Y-109946000D02*
X164496000Y-115533000D01*
D18*
X116497000Y-98895000D02*
X116622000Y-98770000D01*
X162046000Y-107473604D02*
X162554000Y-107981604D01*
X117638000Y-112740000D02*
X119372000Y-112740000D01*
X116622000Y-98770000D02*
X119372000Y-98770000D01*
X162046000Y-103315108D02*
X162046000Y-107473604D01*
X115387000Y-95829000D02*
X118328000Y-98770000D01*
X161665000Y-100237892D02*
X161665000Y-102934108D01*
X119372000Y-112740000D02*
X117722000Y-112740000D01*
D19*
X164496000Y-115533000D02*
X164495000Y-115534000D01*
D18*
X162846000Y-109946000D02*
X164496000Y-109946000D01*
X135024000Y-83670000D02*
X142815000Y-91461000D01*
X115387000Y-91115000D02*
X115387000Y-95829000D01*
X161665000Y-102934108D02*
X162046000Y-103315108D01*
X142815000Y-91461000D02*
X144594000Y-93240000D01*
X144594000Y-93240000D02*
X160512396Y-93240000D01*
X118328000Y-98770000D02*
X119372000Y-98770000D01*
X162046000Y-99856892D02*
X161665000Y-100237892D01*
X160512396Y-93240000D02*
X162046000Y-94773604D01*
X162046000Y-94773604D02*
X162046000Y-99856892D01*
X83522000Y-116332000D02*
X84372000Y-115482000D01*
X162554000Y-109654000D02*
X162846000Y-109946000D01*
%TO.N,Net-(D21-K)*%
X136652000Y-117563000D02*
X136014000Y-118201000D01*
X128281167Y-118201000D02*
X125614167Y-115534000D01*
X138122167Y-115551000D02*
X136652000Y-117021167D01*
X128830000Y-127036000D02*
X125710000Y-123916000D01*
X125614167Y-115534000D02*
X124872000Y-115534000D01*
X139284833Y-115551000D02*
X138122167Y-115551000D01*
X136014000Y-118201000D02*
X128281167Y-118201000D01*
X140061000Y-116327167D02*
X139284833Y-115551000D01*
X135330000Y-127036000D02*
X140061000Y-122305000D01*
X140061000Y-122305000D02*
X140061000Y-116327167D01*
X136652000Y-117021167D02*
X136652000Y-117563000D01*
X125710000Y-123916000D02*
X124872000Y-123916000D01*
D19*
%TO.N,Net-(D8-K)*%
X143435000Y-98321000D02*
X145236000Y-96520000D01*
X145294000Y-109480000D02*
X143435000Y-107621000D01*
X158996000Y-109946000D02*
X158530000Y-109480000D01*
X143435000Y-107621000D02*
X143435000Y-98321000D01*
X158530000Y-109480000D02*
X145294000Y-109480000D01*
D18*
%TO.N,Net-(D22-K)*%
X146919000Y-108327000D02*
X145236000Y-106644000D01*
X160646000Y-112740000D02*
X160971000Y-112415000D01*
X156770000Y-108327000D02*
X146919000Y-108327000D01*
X160197100Y-105977000D02*
X157350900Y-105977000D01*
X160971000Y-105203100D02*
X160197100Y-105977000D01*
X158996000Y-112740000D02*
X160646000Y-112740000D01*
X159040000Y-101564000D02*
X159040000Y-101581900D01*
X160696000Y-108825900D02*
X160696000Y-108697000D01*
X160971000Y-103512900D02*
X160971000Y-105203100D01*
X157350900Y-105977000D02*
X156770000Y-106557900D01*
X159040000Y-101581900D02*
X160971000Y-103512900D01*
X160696000Y-108697000D02*
X160326000Y-108327000D01*
X160971000Y-109100900D02*
X160696000Y-108825900D01*
X156770000Y-106557900D02*
X156770000Y-108327000D01*
X160971000Y-112415000D02*
X160971000Y-109100900D01*
X160326000Y-108327000D02*
X156770000Y-108327000D01*
%TO.N,Net-(D10-K)*%
X124845900Y-118328000D02*
X124872000Y-118328000D01*
X156516000Y-116363000D02*
X156516000Y-117375833D01*
X158995000Y-115534000D02*
X157345000Y-115534000D01*
X124872000Y-118328000D02*
X125722000Y-119178000D01*
X124872000Y-109946000D02*
X123222000Y-109946000D01*
X146561000Y-118201000D02*
X145236000Y-116876000D01*
X125722000Y-119178000D02*
X136434000Y-119178000D01*
X157345000Y-115534000D02*
X156516000Y-116363000D01*
X122897000Y-116379100D02*
X124845900Y-118328000D01*
X123222000Y-109946000D02*
X122897000Y-110271000D01*
X156516000Y-117375833D02*
X155690833Y-118201000D01*
X136434000Y-119178000D02*
X138736000Y-116876000D01*
X155690833Y-118201000D02*
X146561000Y-118201000D01*
X122897000Y-110271000D02*
X122897000Y-116379100D01*
D19*
%TO.N,Net-(D11-K)*%
X146835000Y-128772000D02*
X145135000Y-127072000D01*
X138736000Y-127036000D02*
X137036000Y-128736000D01*
X158996000Y-124170000D02*
X158996000Y-125992000D01*
X133042430Y-128736000D02*
X125428430Y-121122000D01*
X156216000Y-128772000D02*
X146835000Y-128772000D01*
X137036000Y-128736000D02*
X133042430Y-128736000D01*
X158996000Y-125992000D02*
X156216000Y-128772000D01*
X125428430Y-121122000D02*
X124872000Y-121122000D01*
D18*
%TO.N,Net-(D12-K)*%
X157065000Y-102427000D02*
X157065000Y-100718900D01*
X161015000Y-99615100D02*
X161015000Y-97924900D01*
X158548000Y-95976000D02*
X158040000Y-96484000D01*
X158040000Y-96484000D02*
X154888000Y-96484000D01*
X160685100Y-99945000D02*
X161015000Y-99615100D01*
X159066100Y-95976000D02*
X159040000Y-95976000D01*
X158996000Y-104358000D02*
X157065000Y-102427000D01*
X159040000Y-95976000D02*
X158548000Y-95976000D01*
X161015000Y-97924900D02*
X159066100Y-95976000D01*
X157838900Y-99945000D02*
X160685100Y-99945000D01*
X157065000Y-100718900D02*
X157838900Y-99945000D01*
D20*
%TO.N,/ORANGE(DIN1)*%
X164540000Y-98770000D02*
X166190000Y-98770000D01*
D18*
X128480167Y-133060000D02*
X155606000Y-133060000D01*
X121022000Y-104358000D02*
X122247000Y-103133000D01*
X122247000Y-103133000D02*
X122247000Y-95997000D01*
D19*
X164540000Y-95976000D02*
X164540000Y-98770000D01*
D18*
X122447000Y-105783000D02*
X122447000Y-124311100D01*
D20*
X168484000Y-121832000D02*
X166146000Y-124170000D01*
X166190000Y-98770000D02*
X168484000Y-101064000D01*
D19*
X164540000Y-95126000D02*
X160875000Y-91461000D01*
D20*
X166878000Y-126552000D02*
X166878000Y-130810000D01*
D19*
X160875000Y-91461000D02*
X150435000Y-91461000D01*
D18*
X127505000Y-132084833D02*
X128480167Y-133060000D01*
X122447000Y-124311100D02*
X127505000Y-129369100D01*
D20*
X164496000Y-124170000D02*
X166878000Y-126552000D01*
X164628000Y-133060000D02*
X155606000Y-133060000D01*
D18*
X118706000Y-92456000D02*
X117812000Y-92456000D01*
D20*
X166146000Y-124170000D02*
X164496000Y-124170000D01*
D18*
X127505000Y-129369100D02*
X127505000Y-132084833D01*
X121022000Y-104358000D02*
X119372000Y-104358000D01*
D20*
X166878000Y-130810000D02*
X164628000Y-133060000D01*
X168484000Y-101064000D02*
X168484000Y-121832000D01*
D18*
X121022000Y-104358000D02*
X122447000Y-105783000D01*
D19*
X164540000Y-95976000D02*
X164540000Y-95126000D01*
D18*
X122247000Y-95997000D02*
X118706000Y-92456000D01*
%TO.N,Net-(D13-K)*%
X157390000Y-98770000D02*
X156615000Y-99545000D01*
X159040000Y-98770000D02*
X157390000Y-98770000D01*
X156615000Y-105171000D02*
X155142000Y-106644000D01*
X156615000Y-99545000D02*
X156615000Y-105171000D01*
D19*
%TO.N,Net-(D14-K)*%
X154940000Y-124875570D02*
X158439570Y-121376000D01*
X158996000Y-121332000D02*
X159040000Y-121376000D01*
X154940000Y-127072000D02*
X154940000Y-124875570D01*
X158996000Y-118328000D02*
X158996000Y-121332000D01*
X158439570Y-121376000D02*
X159040000Y-121376000D01*
D18*
%TO.N,Net-(D15-K)*%
X80514000Y-113840000D02*
X80514000Y-108712000D01*
X78022000Y-116332000D02*
X80514000Y-113840000D01*
D19*
%TO.N,Net-(D16-K)*%
X194013300Y-91738000D02*
X194013300Y-94750000D01*
X194013300Y-94750000D02*
X194303300Y-95040000D01*
X194818000Y-95250000D02*
X199818000Y-95250000D01*
D18*
%TO.N,Net-(D17-K)*%
X108258000Y-92456000D02*
X102514000Y-86712000D01*
X112312000Y-92456000D02*
X108258000Y-92456000D01*
%TO.N,Net-(D27-K)*%
X161146000Y-107652000D02*
X161146000Y-108639504D01*
X158996000Y-107152000D02*
X160646000Y-107152000D01*
X161421000Y-113169000D02*
X160231000Y-114359000D01*
X155142000Y-115461787D02*
X155142000Y-116876000D01*
X156244787Y-114359000D02*
X155142000Y-115461787D01*
X161146000Y-108639504D02*
X161421000Y-108914504D01*
X160231000Y-114359000D02*
X156244787Y-114359000D01*
X161421000Y-108914504D02*
X161421000Y-113169000D01*
X160646000Y-107152000D02*
X161146000Y-107652000D01*
D19*
%TO.N,/WHITE(DIN8)*%
X180340000Y-114982000D02*
X185340000Y-114982000D01*
%TO.N,/RED(DIN5)*%
X194818000Y-100250000D02*
X199818000Y-100250000D01*
%TD*%
M02*
