%TF.GenerationSoftware,KiCad,Pcbnew,8.0.5*%
%TF.CreationDate,2024-09-28T10:39:20+08:00*%
%TF.ProjectId,ColecoVisionController,436f6c65-636f-4566-9973-696f6e436f6e,rev?*%
%TF.SameCoordinates,Original*%
%TF.FileFunction,Paste,Bot*%
%TF.FilePolarity,Positive*%
%FSLAX46Y46*%
G04 Gerber Fmt 4.6, Leading zero omitted, Abs format (unit mm)*
G04 Created by KiCad (PCBNEW 8.0.5) date 2024-09-28 10:39:20*
%MOMM*%
%LPD*%
G01*
G04 APERTURE LIST*
G04 Aperture macros list*
%AMRoundRect*
0 Rectangle with rounded corners*
0 $1 Rounding radius*
0 $2 $3 $4 $5 $6 $7 $8 $9 X,Y pos of 4 corners*
0 Add a 4 corners polygon primitive as box body*
4,1,4,$2,$3,$4,$5,$6,$7,$8,$9,$2,$3,0*
0 Add four circle primitives for the rounded corners*
1,1,$1+$1,$2,$3*
1,1,$1+$1,$4,$5*
1,1,$1+$1,$6,$7*
1,1,$1+$1,$8,$9*
0 Add four rect primitives between the rounded corners*
20,1,$1+$1,$2,$3,$4,$5,0*
20,1,$1+$1,$4,$5,$6,$7,0*
20,1,$1+$1,$6,$7,$8,$9,0*
20,1,$1+$1,$8,$9,$2,$3,0*%
G04 Aperture macros list end*
%ADD10RoundRect,0.250000X-1.400000X-0.600000X1.400000X-0.600000X1.400000X0.600000X-1.400000X0.600000X0*%
%ADD11RoundRect,0.250000X1.400000X0.600000X-1.400000X0.600000X-1.400000X-0.600000X1.400000X-0.600000X0*%
%ADD12RoundRect,0.250000X-0.600000X1.400000X-0.600000X-1.400000X0.600000X-1.400000X0.600000X1.400000X0*%
%ADD13RoundRect,0.250000X0.600000X-1.400000X0.600000X1.400000X-0.600000X1.400000X-0.600000X-1.400000X0*%
G04 APERTURE END LIST*
D10*
%TO.C,D26*%
X159040000Y-95976000D03*
X164540000Y-95976000D03*
%TD*%
%TO.C,D15*%
X78022000Y-116332000D03*
X83522000Y-116332000D03*
%TD*%
D11*
%TO.C,D4*%
X124872000Y-95976000D03*
X119372000Y-95976000D03*
%TD*%
%TO.C,D18*%
X124872000Y-98770000D03*
X119372000Y-98770000D03*
%TD*%
D10*
%TO.C,D9*%
X159040000Y-101564000D03*
X164540000Y-101564000D03*
%TD*%
%TO.C,D13*%
X159040000Y-98770000D03*
X164540000Y-98770000D03*
%TD*%
%TO.C,D8*%
X158996000Y-109946000D03*
X164496000Y-109946000D03*
%TD*%
%TO.C,D28*%
X158996000Y-118328000D03*
X164496000Y-118328000D03*
%TD*%
D11*
%TO.C,D6*%
X124872000Y-112740000D03*
X119372000Y-112740000D03*
%TD*%
D10*
%TO.C,D12*%
X158996000Y-104358000D03*
X164496000Y-104358000D03*
%TD*%
D11*
%TO.C,D24*%
X124872000Y-118328000D03*
X119372000Y-118328000D03*
%TD*%
%TO.C,D7*%
X124872000Y-115534000D03*
X119372000Y-115534000D03*
%TD*%
D12*
%TO.C,D1*%
X112014000Y-112820000D03*
X112014000Y-118320000D03*
%TD*%
D11*
%TO.C,D5*%
X124872000Y-101564000D03*
X119372000Y-101564000D03*
%TD*%
D13*
%TO.C,D2*%
X105918000Y-124416000D03*
X105918000Y-118916000D03*
%TD*%
D10*
%TO.C,D27*%
X158996000Y-107152000D03*
X164496000Y-107152000D03*
%TD*%
D11*
%TO.C,D21*%
X124872000Y-123916000D03*
X119372000Y-123916000D03*
%TD*%
%TO.C,D23*%
X124872000Y-109946000D03*
X119372000Y-109946000D03*
%TD*%
%TO.C,D19*%
X124872000Y-104358000D03*
X119372000Y-104358000D03*
%TD*%
%TO.C,D20*%
X124916000Y-107152000D03*
X119416000Y-107152000D03*
%TD*%
D10*
%TO.C,D3*%
X179104000Y-105818000D03*
X184604000Y-105818000D03*
%TD*%
%TO.C,D14*%
X159040000Y-121376000D03*
X164540000Y-121376000D03*
%TD*%
%TO.C,D10*%
X158995000Y-115534000D03*
X164495000Y-115534000D03*
%TD*%
%TO.C,D25*%
X158996000Y-124170000D03*
X164496000Y-124170000D03*
%TD*%
%TO.C,D16*%
X194013300Y-91738000D03*
X199513300Y-91738000D03*
%TD*%
%TO.C,D17*%
X112312000Y-92456000D03*
X117812000Y-92456000D03*
%TD*%
%TO.C,D22*%
X158996000Y-112740000D03*
X164496000Y-112740000D03*
%TD*%
D11*
%TO.C,D11*%
X124872000Y-121122000D03*
X119372000Y-121122000D03*
%TD*%
M02*
