%TF.GenerationSoftware,KiCad,Pcbnew,8.0.5*%
%TF.CreationDate,2024-09-28T10:39:20+08:00*%
%TF.ProjectId,ColecoVisionController,436f6c65-636f-4566-9973-696f6e436f6e,rev?*%
%TF.SameCoordinates,Original*%
%TF.FileFunction,Soldermask,Top*%
%TF.FilePolarity,Negative*%
%FSLAX46Y46*%
G04 Gerber Fmt 4.6, Leading zero omitted, Abs format (unit mm)*
G04 Created by KiCad (PCBNEW 8.0.5) date 2024-09-28 10:39:20*
%MOMM*%
%LPD*%
G01*
G04 APERTURE LIST*
%ADD10C,1.524000*%
%ADD11C,2.000000*%
%ADD12R,1.700000X1.700000*%
%ADD13O,1.700000X1.700000*%
%ADD14C,3.200000*%
G04 APERTURE END LIST*
D10*
%TO.C,SW4*%
X80514000Y-108712000D03*
X80514000Y-96212000D03*
X85514000Y-96212000D03*
X85514000Y-108712000D03*
%TD*%
D11*
%TO.C,SW13*%
X128830000Y-121340000D03*
X135330000Y-121340000D03*
X135330000Y-116840000D03*
X128830000Y-116840000D03*
%TD*%
D12*
%TO.C,J1*%
X132655000Y-91461000D03*
D13*
X135195000Y-91461000D03*
X137735000Y-91461000D03*
X140275000Y-91461000D03*
X142815000Y-91461000D03*
X145355000Y-91461000D03*
X147895000Y-91461000D03*
X150435000Y-91461000D03*
%TD*%
D11*
%TO.C,SW11*%
X138635000Y-106680000D03*
X145135000Y-106680000D03*
X145135000Y-111180000D03*
X138635000Y-111180000D03*
%TD*%
%TO.C,SW6*%
X180420000Y-109808000D03*
X185420000Y-109808000D03*
X185420000Y-114808000D03*
X180420000Y-114808000D03*
%TD*%
D14*
%TO.C,MH*%
X71986000Y-104286000D03*
%TD*%
%TO.C,MH*%
X145986000Y-60960000D03*
%TD*%
D11*
%TO.C,SW16*%
X128830000Y-131500000D03*
X135330000Y-131500000D03*
X135330000Y-127000000D03*
X128830000Y-127000000D03*
%TD*%
%TO.C,SW7*%
X128830000Y-96520000D03*
X135330000Y-96520000D03*
X135330000Y-101020000D03*
X128830000Y-101020000D03*
%TD*%
D14*
%TO.C,MH*%
X137986000Y-60960000D03*
%TD*%
D10*
%TO.C,SW2*%
X102514000Y-118212000D03*
X90014000Y-118212000D03*
X90014000Y-113212000D03*
X102514000Y-113212000D03*
%TD*%
D11*
%TO.C,SW5*%
X194983000Y-95290000D03*
X199983000Y-95290000D03*
X199983000Y-100290000D03*
X194983000Y-100290000D03*
%TD*%
%TO.C,SW12*%
X148440000Y-111180000D03*
X154940000Y-111180000D03*
X154940000Y-106680000D03*
X148440000Y-106680000D03*
%TD*%
%TO.C,SW18*%
X148440000Y-131572000D03*
X154940000Y-131572000D03*
X154940000Y-127072000D03*
X148440000Y-127072000D03*
%TD*%
%TO.C,SW10*%
X128830000Y-106680000D03*
X135330000Y-106680000D03*
X135330000Y-111180000D03*
X128830000Y-111180000D03*
%TD*%
%TO.C,SW8*%
X138736000Y-96520000D03*
X145236000Y-96520000D03*
X145236000Y-101020000D03*
X138736000Y-101020000D03*
%TD*%
D14*
%TO.C,MH*%
X211986000Y-104286000D03*
%TD*%
D11*
%TO.C,SW17*%
X138635000Y-131572000D03*
X145135000Y-131572000D03*
X145135000Y-127072000D03*
X138635000Y-127072000D03*
%TD*%
D14*
%TO.C,MH*%
X121986000Y-129286000D03*
%TD*%
D11*
%TO.C,SW15*%
X148440000Y-121340000D03*
X154940000Y-121340000D03*
X154940000Y-116840000D03*
X148440000Y-116840000D03*
%TD*%
%TO.C,SW14*%
X138635000Y-121412000D03*
X145135000Y-121412000D03*
X145135000Y-116912000D03*
X138635000Y-116912000D03*
%TD*%
D10*
%TO.C,SW1*%
X90014000Y-86712000D03*
X102514000Y-86712000D03*
X102514000Y-91712000D03*
X90014000Y-91712000D03*
%TD*%
D11*
%TO.C,SW9*%
X148590000Y-96520000D03*
X155090000Y-96520000D03*
X155090000Y-101020000D03*
X148590000Y-101020000D03*
%TD*%
D14*
%TO.C,MH*%
X162240000Y-129286000D03*
%TD*%
%TO.C,MH*%
X121986000Y-79286000D03*
%TD*%
D10*
%TO.C,SW3*%
X112014000Y-96212000D03*
X112014000Y-108712000D03*
X107014000Y-108712000D03*
X107014000Y-96212000D03*
%TD*%
D14*
%TO.C,MH*%
X161986000Y-79286000D03*
%TD*%
M02*
