M48
; DRILL file {KiCad 8.0.5} date 2024-09-28T10:29:42+0800
; FORMAT={-:-/ absolute / metric / decimal}
; #@! TF.CreationDate,2024-09-28T10:29:42+08:00
; #@! TF.GenerationSoftware,Kicad,Pcbnew,8.0.5
; #@! TF.FileFunction,Plated,1,2,PTH
FMAT,2
METRIC
; #@! TA.AperFunction,Plated,PTH,ComponentDrill
T1C0.762
; #@! TA.AperFunction,Plated,PTH,ComponentDrill
T2C1.000
; #@! TA.AperFunction,Plated,PTH,ComponentDrill
T3C1.100
%
G90
G05
T1
X80.514Y-96.212
X80.514Y-108.712
X85.514Y-96.212
X85.514Y-108.712
X90.014Y-86.712
X90.014Y-91.712
X90.014Y-113.212
X90.014Y-118.212
X102.514Y-86.712
X102.514Y-91.712
X102.514Y-113.212
X102.514Y-118.212
X107.014Y-96.212
X107.014Y-108.712
X112.014Y-96.212
X112.014Y-108.712
T2
X132.655Y-91.461
X135.195Y-91.461
X137.735Y-91.461
X140.275Y-91.461
X142.815Y-91.461
X145.355Y-91.461
X147.895Y-91.461
X150.435Y-91.461
T3
X128.83Y-96.52
X128.83Y-101.02
X128.83Y-106.68
X128.83Y-111.18
X128.83Y-116.84
X128.83Y-121.34
X128.83Y-127.0
X128.83Y-131.5
X135.33Y-96.52
X135.33Y-101.02
X135.33Y-106.68
X135.33Y-111.18
X135.33Y-116.84
X135.33Y-121.34
X135.33Y-127.0
X135.33Y-131.5
X138.635Y-106.68
X138.635Y-111.18
X138.635Y-116.912
X138.635Y-121.412
X138.635Y-127.072
X138.635Y-131.572
X138.736Y-96.52
X138.736Y-101.02
X145.135Y-106.68
X145.135Y-111.18
X145.135Y-116.912
X145.135Y-121.412
X145.135Y-127.072
X145.135Y-131.572
X145.236Y-96.52
X145.236Y-101.02
X148.44Y-106.68
X148.44Y-111.18
X148.44Y-116.84
X148.44Y-121.34
X148.44Y-127.072
X148.44Y-131.572
X148.59Y-96.52
X148.59Y-101.02
X154.94Y-106.68
X154.94Y-111.18
X154.94Y-116.84
X154.94Y-121.34
X154.94Y-127.072
X154.94Y-131.572
X155.09Y-96.52
X155.09Y-101.02
X180.42Y-109.808
X180.42Y-114.808
X185.42Y-109.808
X185.42Y-114.808
X194.983Y-95.29
X194.983Y-100.29
X199.983Y-95.29
X199.983Y-100.29
M30
