%TF.GenerationSoftware,KiCad,Pcbnew,8.0.5*%
%TF.CreationDate,2024-09-28T10:39:20+08:00*%
%TF.ProjectId,ColecoVisionController,436f6c65-636f-4566-9973-696f6e436f6e,rev?*%
%TF.SameCoordinates,Original*%
%TF.FileFunction,Copper,L1,Top*%
%TF.FilePolarity,Positive*%
%FSLAX46Y46*%
G04 Gerber Fmt 4.6, Leading zero omitted, Abs format (unit mm)*
G04 Created by KiCad (PCBNEW 8.0.5) date 2024-09-28 10:39:20*
%MOMM*%
%LPD*%
G01*
G04 APERTURE LIST*
%TA.AperFunction,ComponentPad*%
%ADD10C,1.524000*%
%TD*%
%TA.AperFunction,ComponentPad*%
%ADD11C,2.000000*%
%TD*%
%TA.AperFunction,ComponentPad*%
%ADD12R,1.700000X1.700000*%
%TD*%
%TA.AperFunction,ComponentPad*%
%ADD13O,1.700000X1.700000*%
%TD*%
%TA.AperFunction,Conductor*%
%ADD14C,1.000000*%
%TD*%
G04 APERTURE END LIST*
D10*
%TO.P,SW4,1,1*%
%TO.N,Net-(D15-K)*%
X80514000Y-108712000D03*
%TO.P,SW4,2,2*%
X80514000Y-96212000D03*
%TO.P,SW4,3,K*%
%TO.N,/WHITE(DIN8)*%
X85514000Y-96212000D03*
%TO.P,SW4,4,A*%
X85514000Y-108712000D03*
%TD*%
D11*
%TO.P,SW13,4,A*%
%TO.N,/RED(DIN5)*%
X128830000Y-121340000D03*
%TO.P,SW13,3,K*%
X135330000Y-121340000D03*
%TO.P,SW13,2,2*%
%TO.N,Net-(D20-K)*%
X135330000Y-116840000D03*
%TO.P,SW13,1,1*%
X128830000Y-116840000D03*
%TD*%
D12*
%TO.P,J1,1,Pin_1*%
%TO.N,/RED(DIN5)*%
X132655000Y-91461000D03*
D13*
%TO.P,J1,2,Pin_2*%
%TO.N,/BLACK(DIN4)*%
X135195000Y-91461000D03*
%TO.P,J1,3,Pin_3*%
%TO.N,unconnected-(J1-Pin_3-Pad3)*%
X137735000Y-91461000D03*
%TO.P,J1,4,Pin_4*%
%TO.N,/WHITE(DIN8)*%
X140275000Y-91461000D03*
%TO.P,J1,5,Pin_5*%
%TO.N,/BROWN(DIN3)*%
X142815000Y-91461000D03*
%TO.P,J1,6,Pin_6*%
%TO.N,/GREY(DIN2)*%
X145355000Y-91461000D03*
%TO.P,J1,7,Pin_7*%
%TO.N,/YELLOW(DIN6)*%
X147895000Y-91461000D03*
%TO.P,J1,8,Pin_8*%
%TO.N,/ORANGE(DIN1)*%
X150435000Y-91461000D03*
%TD*%
D11*
%TO.P,SW11,1,1*%
%TO.N,Net-(D22-K)*%
X138635000Y-106680000D03*
%TO.P,SW11,2,2*%
X145135000Y-106680000D03*
%TO.P,SW11,3,K*%
%TO.N,/RED(DIN5)*%
X145135000Y-111180000D03*
%TO.P,SW11,4,A*%
X138635000Y-111180000D03*
%TD*%
%TO.P,SW6,1,1*%
%TO.N,Net-(D3-K)*%
X180420000Y-109808000D03*
%TO.P,SW6,2,2*%
X185420000Y-109808000D03*
%TO.P,SW6,3,K*%
%TO.N,/WHITE(DIN8)*%
X185420000Y-114808000D03*
%TO.P,SW6,4,A*%
X180420000Y-114808000D03*
%TD*%
%TO.P,SW16,4,A*%
%TO.N,/RED(DIN5)*%
X128830000Y-131500000D03*
%TO.P,SW16,3,K*%
X135330000Y-131500000D03*
%TO.P,SW16,2,2*%
%TO.N,Net-(D21-K)*%
X135330000Y-127000000D03*
%TO.P,SW16,1,1*%
X128830000Y-127000000D03*
%TD*%
%TO.P,SW7,1,1*%
%TO.N,Net-(D4-K)*%
X128830000Y-96520000D03*
%TO.P,SW7,2,2*%
X135330000Y-96520000D03*
%TO.P,SW7,3,K*%
%TO.N,/RED(DIN5)*%
X135330000Y-101020000D03*
%TO.P,SW7,4,A*%
X128830000Y-101020000D03*
%TD*%
D10*
%TO.P,SW2,1,1*%
%TO.N,Net-(D2-K)*%
X102514000Y-118212000D03*
%TO.P,SW2,2,2*%
X90014000Y-118212000D03*
%TO.P,SW2,3,K*%
%TO.N,/WHITE(DIN8)*%
X90014000Y-113212000D03*
%TO.P,SW2,4,A*%
X102514000Y-113212000D03*
%TD*%
D11*
%TO.P,SW5,1,1*%
%TO.N,Net-(D16-K)*%
X194983000Y-95290000D03*
%TO.P,SW5,2,2*%
X199983000Y-95290000D03*
%TO.P,SW5,3,K*%
%TO.N,/RED(DIN5)*%
X199983000Y-100290000D03*
%TO.P,SW5,4,A*%
X194983000Y-100290000D03*
%TD*%
%TO.P,SW12,4,A*%
%TO.N,/RED(DIN5)*%
X148440000Y-111180000D03*
%TO.P,SW12,3,K*%
X154940000Y-111180000D03*
%TO.P,SW12,2,2*%
%TO.N,Net-(D13-K)*%
X154940000Y-106680000D03*
%TO.P,SW12,1,1*%
X148440000Y-106680000D03*
%TD*%
%TO.P,SW18,4,A*%
%TO.N,/RED(DIN5)*%
X148440000Y-131572000D03*
%TO.P,SW18,3,K*%
X154940000Y-131572000D03*
%TO.P,SW18,2,2*%
%TO.N,Net-(D14-K)*%
X154940000Y-127072000D03*
%TO.P,SW18,1,1*%
X148440000Y-127072000D03*
%TD*%
%TO.P,SW10,1,1*%
%TO.N,Net-(D18-K)*%
X128830000Y-106680000D03*
%TO.P,SW10,2,2*%
X135330000Y-106680000D03*
%TO.P,SW10,3,K*%
%TO.N,/RED(DIN5)*%
X135330000Y-111180000D03*
%TO.P,SW10,4,A*%
X128830000Y-111180000D03*
%TD*%
%TO.P,SW8,1,1*%
%TO.N,Net-(D8-K)*%
X138736000Y-96520000D03*
%TO.P,SW8,2,2*%
X145236000Y-96520000D03*
%TO.P,SW8,3,K*%
%TO.N,/RED(DIN5)*%
X145236000Y-101020000D03*
%TO.P,SW8,4,A*%
X138736000Y-101020000D03*
%TD*%
%TO.P,SW17,4,A*%
%TO.N,/RED(DIN5)*%
X138635000Y-131572000D03*
%TO.P,SW17,3,K*%
X145135000Y-131572000D03*
%TO.P,SW17,2,2*%
%TO.N,Net-(D11-K)*%
X145135000Y-127072000D03*
%TO.P,SW17,1,1*%
X138635000Y-127072000D03*
%TD*%
%TO.P,SW15,4,A*%
%TO.N,/RED(DIN5)*%
X148440000Y-121340000D03*
%TO.P,SW15,3,K*%
X154940000Y-121340000D03*
%TO.P,SW15,2,2*%
%TO.N,Net-(D27-K)*%
X154940000Y-116840000D03*
%TO.P,SW15,1,1*%
X148440000Y-116840000D03*
%TD*%
%TO.P,SW14,4,A*%
%TO.N,/RED(DIN5)*%
X138635000Y-121412000D03*
%TO.P,SW14,3,K*%
X145135000Y-121412000D03*
%TO.P,SW14,2,2*%
%TO.N,Net-(D10-K)*%
X145135000Y-116912000D03*
%TO.P,SW14,1,1*%
X138635000Y-116912000D03*
%TD*%
D10*
%TO.P,SW1,1,1*%
%TO.N,Net-(D17-K)*%
X90014000Y-86712000D03*
%TO.P,SW1,2,2*%
X102514000Y-86712000D03*
%TO.P,SW1,3,K*%
%TO.N,/WHITE(DIN8)*%
X102514000Y-91712000D03*
%TO.P,SW1,4,A*%
X90014000Y-91712000D03*
%TD*%
D11*
%TO.P,SW9,1,1*%
%TO.N,Net-(D12-K)*%
X148590000Y-96520000D03*
%TO.P,SW9,2,2*%
X155090000Y-96520000D03*
%TO.P,SW9,3,K*%
%TO.N,/RED(DIN5)*%
X155090000Y-101020000D03*
%TO.P,SW9,4,A*%
X148590000Y-101020000D03*
%TD*%
D10*
%TO.P,SW3,1,1*%
%TO.N,Net-(D1-K)*%
X112014000Y-96212000D03*
%TO.P,SW3,2,2*%
X112014000Y-108712000D03*
%TO.P,SW3,3,K*%
%TO.N,/WHITE(DIN8)*%
X107014000Y-108712000D03*
%TO.P,SW3,4,A*%
X107014000Y-96212000D03*
%TD*%
D14*
%TO.N,Net-(D1-K)*%
X112014000Y-96212000D02*
X112014000Y-108712000D01*
%TO.N,Net-(D2-K)*%
X90014000Y-118212000D02*
X102514000Y-118212000D01*
%TO.N,Net-(D4-K)*%
X135330000Y-96484000D02*
X128830000Y-96484000D01*
%TO.N,Net-(D18-K)*%
X135330000Y-106644000D02*
X128830000Y-106644000D01*
%TO.N,Net-(D20-K)*%
X128830000Y-116876000D02*
X135330000Y-116876000D01*
%TO.N,Net-(D21-K)*%
X135330000Y-127036000D02*
X128830000Y-127036000D01*
%TO.N,Net-(D8-K)*%
X138736000Y-96484000D02*
X145236000Y-96484000D01*
%TO.N,Net-(D22-K)*%
X145236000Y-106644000D02*
X138736000Y-106644000D01*
%TO.N,Net-(D10-K)*%
X138736000Y-116876000D02*
X145236000Y-116876000D01*
%TO.N,Net-(D11-K)*%
X145236000Y-127036000D02*
X138736000Y-127036000D01*
%TO.N,Net-(D12-K)*%
X148388000Y-96484000D02*
X154888000Y-96484000D01*
%TO.N,Net-(D13-K)*%
X155142000Y-106644000D02*
X148642000Y-106644000D01*
%TO.N,Net-(D14-K)*%
X155142000Y-127036000D02*
X148642000Y-127036000D01*
%TO.N,Net-(D15-K)*%
X80514000Y-96212000D02*
X80514000Y-108712000D01*
%TO.N,Net-(D17-K)*%
X90014000Y-86712000D02*
X102514000Y-86712000D01*
%TO.N,Net-(D27-K)*%
X148642000Y-116876000D02*
X155142000Y-116876000D01*
%TO.N,/WHITE(DIN8)*%
X138725000Y-89911000D02*
X104315000Y-89911000D01*
X85514000Y-108712000D02*
X85514000Y-96212000D01*
X104315000Y-89911000D02*
X102514000Y-91712000D01*
X140275000Y-91461000D02*
X138725000Y-89911000D01*
X90014000Y-113212000D02*
X85514000Y-108712000D01*
X157134000Y-93584000D02*
X178532000Y-114982000D01*
X140275000Y-91461000D02*
X142398000Y-93584000D01*
X102514000Y-113212000D02*
X90014000Y-113212000D01*
X107014000Y-96212000D02*
X107014000Y-108712000D01*
X102514000Y-91712000D02*
X107014000Y-96212000D01*
X90014000Y-91712000D02*
X102514000Y-91712000D01*
X107014000Y-108712000D02*
X102514000Y-113212000D01*
X85514000Y-96212000D02*
X90014000Y-91712000D01*
X142398000Y-93584000D02*
X157134000Y-93584000D01*
X178532000Y-114982000D02*
X180340000Y-114982000D01*
%TO.N,/RED(DIN5)*%
X155758164Y-94784000D02*
X178378064Y-117403900D01*
X127130000Y-109444000D02*
X127130000Y-102684000D01*
X178212064Y-117403900D02*
X179324000Y-117403900D01*
X137036000Y-95038000D02*
X137036000Y-99278000D01*
X128830000Y-121376000D02*
X127130000Y-119676000D01*
X185322264Y-117403900D02*
X194818000Y-107908164D01*
X128830000Y-131536000D02*
X127130000Y-129836000D01*
X194818000Y-107908164D02*
X194818000Y-100250000D01*
X137290000Y-94784000D02*
X155758164Y-94784000D01*
X127130000Y-112844000D02*
X128830000Y-111144000D01*
X137036000Y-95038000D02*
X137290000Y-94784000D01*
X127130000Y-123076000D02*
X128830000Y-121376000D01*
X127130000Y-119676000D02*
X127130000Y-112844000D01*
X155142000Y-111144000D02*
X128830000Y-111144000D01*
X128830000Y-121376000D02*
X155142000Y-121376000D01*
X155142000Y-131536000D02*
X128830000Y-131536000D01*
X134205000Y-93011000D02*
X135009000Y-93011000D01*
X135330000Y-100984000D02*
X128830000Y-100984000D01*
X135330000Y-100984000D02*
X154888000Y-100984000D01*
X179324000Y-117403900D02*
X185322264Y-117403900D01*
X135009000Y-93011000D02*
X137036000Y-95038000D01*
X137036000Y-99278000D02*
X135330000Y-100984000D01*
X132655000Y-91461000D02*
X134205000Y-93011000D01*
X127130000Y-129836000D02*
X127130000Y-123076000D01*
X128830000Y-111144000D02*
X127130000Y-109444000D01*
X178378064Y-117403900D02*
X179324000Y-117403900D01*
X127130000Y-102684000D02*
X128830000Y-100984000D01*
%TD*%
M02*
