M48
; DRILL file {KiCad 8.0.5} date 2024-10-27T16:33:32+0800
; FORMAT={-:-/ absolute / metric / decimal}
; #@! TF.CreationDate,2024-10-27T16:33:32+08:00
; #@! TF.GenerationSoftware,Kicad,Pcbnew,8.0.5
; #@! TF.FileFunction,Plated,1,2,PTH
FMAT,2
METRIC
; #@! TA.AperFunction,Plated,PTH,ComponentDrill
T1C0.762
; #@! TA.AperFunction,Plated,PTH,ComponentDrill
T2C1.000
; #@! TA.AperFunction,Plated,PTH,ComponentDrill
T3C1.100
%
G90
G05
T2
X132.655Y-91.461
X135.195Y-91.461
X137.735Y-91.461
X140.275Y-91.461
X142.815Y-91.461
X145.355Y-91.461
X147.895Y-91.461
X150.435Y-91.461
T3
X128.83Y-96.52
X128.83Y-101.02
X128.83Y-106.68
X128.83Y-111.18
X128.83Y-116.84
X128.83Y-121.34
X128.83Y-127.0
X128.83Y-131.5
X135.33Y-96.52
X135.33Y-101.02
X135.33Y-106.68
X135.33Y-111.18
X135.33Y-116.84
X135.33Y-121.34
X135.33Y-127.0
X135.33Y-131.5
X138.635Y-106.68
X138.635Y-111.18
X138.635Y-116.912
X138.635Y-121.412
X138.635Y-127.072
X138.635Y-131.572
X138.736Y-96.52
X138.736Y-101.02
X145.135Y-106.68
X145.135Y-111.18
X145.135Y-116.912
X145.135Y-121.412
X145.135Y-127.072
X145.135Y-131.572
X145.236Y-96.52
X145.236Y-101.02
X148.44Y-106.68
X148.44Y-111.18
X148.44Y-116.84
X148.44Y-121.34
X148.44Y-127.072
X148.44Y-131.572
X148.59Y-96.52
X148.59Y-101.02
X154.94Y-106.68
X154.94Y-111.18
X154.94Y-116.84
X154.94Y-121.34
X154.94Y-127.072
X154.94Y-131.572
X155.09Y-96.52
X155.09Y-101.02
X180.42Y-109.808
X180.42Y-114.808
X185.42Y-109.808
X185.42Y-114.808
X194.983Y-95.29
X194.983Y-100.29
X199.983Y-95.29
X199.983Y-100.29
T1
X80.714Y-96.062G85X80.314Y-96.062
G05
X80.714Y-108.862G85X80.314Y-108.862
G05
X85.714Y-96.062G85X85.314Y-96.062
G05
X85.714Y-108.862G85X85.314Y-108.862
G05
X89.864Y-86.912G85X89.864Y-86.512
G05
X89.864Y-91.912G85X89.864Y-91.512
G05
X89.864Y-113.012G85X89.864Y-113.412
G05
X89.864Y-118.012G85X89.864Y-118.412
G05
X102.664Y-86.912G85X102.664Y-86.512
G05
X102.664Y-91.912G85X102.664Y-91.512
G05
X102.664Y-113.012G85X102.664Y-113.412
G05
X102.664Y-118.012G85X102.664Y-118.412
G05
X106.814Y-96.062G85X107.214Y-96.062
G05
X106.814Y-108.862G85X107.214Y-108.862
G05
X111.814Y-96.062G85X112.214Y-96.062
G05
X111.814Y-108.862G85X112.214Y-108.862
G05
M30
